<?xml version="1.0" standalone="no"?>
<!DOCTYPE svg PUBLIC "-//W3C//DTD SVG 20010904//EN"
 "http://www.w3.org/TR/2001/REC-SVG-20010904/DTD/svg10.dtd">
<svg version="1.0" xmlns="http://www.w3.org/2000/svg"
 width="500.000000pt" height="500.000000pt" viewBox="0 0 500.000000 500.000000"
 preserveAspectRatio="xMidYMid meet">
<metadata>
Created by potrace 1.10, written by Peter Selinger 2001-2011
</metadata>
<g transform="translate(0.000000,500.000000) scale(0.050000,-0.050000)"
fill="#000000" stroke="none">
<path d="M5090 8960 c-198 -8 -765 -25 -1260 -38 -1028 -27 -1023 -27 -1041
-88 -7 -24 -67 -163 -133 -309 l-119 -264 161 -444 c88 -243 157 -449 152
-457 -59 -95 -854 -73 -1153 31 -89 31 -99 24 -74 -58 191 -641 -87 -1094
-760 -1237 -294 -62 -287 -55 -132 -155 691 -447 768 -1002 214 -1556 -91 -91
-165 -167 -165 -170 0 -3 79 -2 175 1 802 30 1095 -238 1093 -1001 0 -162 1
-295 2 -295 2 0 32 44 67 99 452 696 1255 650 1617 -94 l90 -184 100 109 c127
139 147 139 162 1 55 -532 868 -966 1484 -793 495 140 1138 840 1138 1239 l0
127 86 -11 c48 -7 156 -35 239 -63 179 -60 176 -61 136 52 -224 624 155 1075
989 1177 200 25 201 25 122 75 -726 460 -727 1242 -2 1806 l141 110 -204 12
c-802 48 -1222 579 -1047 1323 30 131 26 135 -69 63 -350 -265 -859 -373
-1143 -243 l-110 50 -13 207 c-7 115 -18 386 -26 603 l-13 395 -172 -3 c-95
-2 -334 -10 -532 -17z m484 -632 c13 -219 51 -861 84 -1428 34 -566 81 -1352
105 -1745 24 -393 40 -718 35 -721 -4 -4 -281 -2 -614 5 l-606 11 -46 130
c-26 72 -137 373 -247 670 -110 297 -297 801 -415 1120 -118 319 -314 846
-434 1170 -120 325 -246 666 -279 759 -33 92 -82 216 -108 274 -59 134 -116
122 581 127 330 3 888 11 1240 19 352 7 649 12 660 11 12 -2 30 -170 44 -402z
m-2665 255 c13 -58 309 -870 666 -1823 39 -104 109 -293 155 -420 104 -284
400 -1084 588 -1587 l141 -377 -112 -103 c-62 -57 -119 -106 -127 -109 -8 -3
-42 74 -76 170 -34 97 -108 307 -164 466 -57 160 -160 452 -230 650 -70 198
-164 464 -210 590 -45 127 -103 289 -128 360 -134 384 -486 1377 -571 1611
l-98 269 60 180 c64 190 86 216 106 123z m4054 -988 c-15 -466 419 -990 895
-1081 l114 -22 -123 -121 c-403 -396 -433 -1134 -61 -1522 110 -115 113 -129
23 -129 -464 0 -1020 -618 -936 -1042 l20 -102 -53 13 c-28 7 -88 20 -132 29
-59 12 -111 47 -200 135 -134 131 -338 243 -550 299 -71 20 -134 39 -139 43
-6 4 38 50 97 101 l107 95 -23 479 c-29 612 -53 1092 -102 2039 -45 864 -52
780 62 740 279 -99 798 -15 951 154 47 52 54 35 50 -108z m-3980 -590 c86
-252 173 -498 556 -1565 308 -858 509 -1425 529 -1493 13 -43 144 -48 557 -19
107 7 121 -13 40 -56 -72 -38 -187 -160 -354 -377 -74 -96 -142 -175 -150
-175 -9 0 -70 -39 -136 -88 l-119 -88 -33 56 c-257 436 -1056 602 -1495 311
-97 -64 -91 -65 -105 26 -60 376 -519 773 -946 817 l-102 11 77 110 c278 397
222 1029 -123 1394 -90 95 -99 112 -67 122 405 121 706 579 708 1074 0 123 18
166 50 116 77 -126 689 -127 926 -2 109 58 108 59 187 -174z m2816 -2717 c4
-5 -27 -45 -69 -88 l-78 -80 -181 0 c-100 0 -235 -14 -301 -30 -143 -34 -890
-43 -890 -10 0 11 7 20 15 20 8 0 68 47 132 105 l118 105 622 -7 c343 -4 627
-11 632 -15z m-55 -397 c669 -119 911 -623 497 -1031 -417 -410 -1084 -409
-1506 3 -333 326 -242 732 211 936 108 49 168 66 384 108 86 17 267 10 414
-16z m-1344 -640 c0 -602 948 -1050 1564 -739 167 85 161 46 -16 -100 -762
-628 -2115 64 -1645 841 82 134 97 134 97 -2z"/>
<path d="M3224 8565 c17 -19 58 -116 92 -215 33 -99 107 -306 164 -460 56
-154 132 -365 169 -470 37 -104 163 -455 281 -780 118 -324 257 -711 310 -860
54 -148 152 -423 220 -610 68 -187 147 -405 175 -485 l52 -145 358 0 c200 0
353 8 346 18 -5 9 -52 12 -103 7 -66 -8 -98 -3 -112 17 -15 22 -21 22 -29 3
-6 -14 -19 -25 -30 -25 -11 0 -13 10 -6 22 10 16 3 16 -27 0 -55 -29 -90 -28
-71 3 11 19 7 20 -14 4 -52 -38 -287 -39 -272 -1 11 31 3 59 -60 205 -15 35
-27 77 -27 95 0 95 -48 209 -73 176 -30 -40 -35 -7 -8 62 15 40 12 49 -15 47
-27 -2 -33 12 -29 63 3 41 -2 62 -15 54 -27 -17 -26 16 2 44 15 15 15 25 0 35
-12 7 -22 3 -22 -9 0 -12 -10 -16 -21 -9 -12 7 -17 26 -10 42 6 17 3 45 -7 63
-10 19 -21 66 -24 104 -3 39 -17 84 -30 100 -13 17 -29 50 -37 75 -8 25 -20
42 -28 37 -8 -5 -16 19 -17 54 -1 35 2 48 7 29 6 -19 18 -35 28 -35 10 0 8 22
-4 50 -21 45 -25 47 -48 15 -42 -57 -56 -13 -17 54 35 58 35 63 2 95 -28 28
-34 29 -35 5 0 -16 -18 3 -39 41 -47 86 -48 100 -10 100 17 0 30 9 30 20 0 11
-7 20 -15 20 -8 0 -31 28 -50 61 -19 34 -25 55 -15 49 11 -7 14 2 8 19 -7 17
-20 31 -30 31 -10 0 -18 22 -18 48 0 26 -13 53 -30 59 -16 7 -30 22 -30 34 0
12 9 16 20 9 12 -7 3 17 -19 54 -75 125 -88 153 -52 107 17 -21 31 -29 31 -18
0 12 -18 42 -40 67 -47 54 -45 44 -19 112 17 46 16 50 -9 30 -23 -20 -31 -14
-41 32 -58 272 -81 335 -127 356 -29 13 -41 33 -35 62 4 24 -10 72 -31 106
-21 35 -38 85 -38 112 0 28 -7 50 -17 50 -9 0 -15 40 -15 90 1 49 -8 93 -20
98 -12 5 -27 51 -33 102 -9 81 -75 200 -75 136 0 -12 11 -26 24 -31 16 -5 14
-12 -7 -19 -17 -7 -31 -2 -31 11 -1 13 -7 49 -13 82 -7 33 -1 71 12 88 21 24
18 27 -20 15 -47 -15 -57 14 -50 143 1 25 -7 45 -20 45 -12 0 -16 5 -10 12 7
7 -9 35 -35 64 -26 28 -42 60 -36 71 7 10 2 13 -11 5 -14 -8 -23 -2 -23 16 0
17 -17 40 -39 51 -57 31 -71 26 -37 -14z"/>
<path d="M3410 6817 c-14 -191 0 -286 32 -206 20 52 19 308 -1 359 -10 27 -21
-24 -31 -153z"/>
<path d="M3540 6479 c-12 -45 -19 -115 -15 -155 l7 -74 34 74 c37 80 46 236
15 236 -11 0 -29 -37 -41 -81z"/>
<path d="M3684 6056 c-12 -47 -15 -93 -5 -103 24 -24 42 14 45 96 4 103 -15
106 -40 7z"/>
<path d="M7409 4783 c-243 -83 -534 -345 -463 -416 6 -6 25 15 42 46 77 142
233 265 452 353 146 59 125 70 -31 17z"/>
<path d="M6550 3926 c22 -6 47 -16 55 -24 9 -8 44 -11 77 -6 91 13 30 44 -82
41 -49 -1 -72 -6 -50 -11z"/>
<path d="M1480 5666 c39 -15 101 -79 88 -91 -5 -6 15 -31 46 -58 31 -26 69
-72 84 -102 16 -30 37 -55 47 -55 9 0 11 -11 3 -23 -10 -16 -4 -20 16 -12 23
9 28 -1 21 -42 -6 -40 -3 -46 12 -24 14 21 17 5 9 -55 -7 -56 -4 -84 11 -84
29 0 30 -153 2 -171 -12 -7 -17 -25 -12 -40 15 -38 -25 -169 -51 -169 -13 0
-17 -6 -9 -13 7 -8 -1 -35 -18 -61 -40 -62 16 -92 63 -34 134 167 162 468 62
672 -82 167 -292 378 -372 374 -27 -1 -27 -3 -2 -12z"/>
<path d="M1705 4553 c-6 -11 -1 -13 12 -5 13 8 28 1 35 -15 8 -22 30 -27 82
-19 47 8 75 3 86 -15 10 -16 55 -27 113 -27 54 0 106 -11 117 -24 28 -32 150
-70 175 -55 12 7 16 5 9 -6 -6 -11 33 -58 87 -106 55 -48 99 -97 99 -109 1
-12 18 -44 40 -72 22 -27 39 -59 39 -70 0 -11 -9 -6 -21 10 -17 24 -19 22 -7
-10 8 -22 16 -61 17 -86 1 -25 14 -53 29 -62 22 -14 22 -19 2 -26 -15 -5 -20
-19 -11 -33 29 -47 52 2 52 113 -1 326 -319 590 -750 621 -115 8 -198 7 -205
-4z"/>
<path d="M3140 3814 c6 -6 51 -15 100 -21 206 -24 271 -39 295 -69 14 -17 25
-25 25 -17 0 20 117 -43 200 -108 39 -30 90 -61 115 -68 25 -8 40 -23 33 -34
-8 -14 1 -14 27 0 22 12 45 16 52 10 17 -18 156 52 143 73 -6 10 -43 4 -82
-12 -90 -38 -167 -15 -278 81 -142 122 -238 158 -450 167 -104 5 -185 4 -180
-2z"/>
<path d="M4720 4252 c0 -12 184 -132 203 -132 43 0 9 43 -70 89 -79 46 -133
64 -133 43z"/>
<path d="M4636 3229 c-62 -61 406 -392 634 -448 255 -62 936 49 877 144 -7 11
-19 8 -29 -8 -15 -22 -17 -22 -18 1 0 22 -9 20 -40 -8 -23 -21 -40 -26 -40
-13 0 13 -14 23 -31 23 -17 0 -26 -8 -20 -18 6 -9 -7 -22 -29 -28 -25 -6 -35
-2 -27 10 8 14 1 15 -23 1 -20 -11 -51 -16 -71 -11 -19 5 -41 0 -48 -12 -17
-28 -51 -28 -51 -1 0 12 10 15 23 7 13 -8 18 -5 11 5 -8 13 -53 12 -128 -4
-64 -13 -124 -17 -134 -8 -9 9 -39 8 -66 -2 -34 -14 -44 -12 -34 4 9 15 -9 19
-59 14 -40 -5 -73 -2 -73 6 0 9 -13 11 -30 4 -16 -6 -30 -1 -30 11 0 12 -18
22 -40 22 -22 0 -40 10 -40 22 0 13 -20 19 -45 14 -29 -5 -64 8 -95 38 -41 38
-43 46 -15 46 19 0 35 14 35 30 0 36 -33 40 -47 5 -8 -20 -10 -19 -11 1 -2 19
-12 20 -42 4 -42 -22 -47 -16 -41 48 4 29 -5 35 -37 27 -28 -8 -42 -2 -42 16
0 22 -12 24 -53 8 -49 -19 -51 -17 -25 14 25 30 24 33 -6 22 -18 -7 -36 -4
-40 7 -4 11 -13 15 -20 7z"/>
<path d="M4361 2808 c-60 -68 -62 -76 -30 -94 39 -22 159 87 144 131 -15 46
-52 34 -114 -37z"/>
<path d="M4499 2655 c-79 -100 -85 -115 -49 -115 42 0 150 107 150 148 0 52
-46 37 -101 -33z"/>
<path d="M4640 2544 c-64 -95 -72 -114 -38 -92 16 9 40 19 55 21 41 6 46 18
39 84 l-6 62 -50 -75z"/>
</g>
</svg>
