<?xml version="1.0" standalone="no"?>
<!DOCTYPE svg PUBLIC "-//W3C//DTD SVG 20010904//EN"
 "http://www.w3.org/TR/2001/REC-SVG-20010904/DTD/svg10.dtd">
<svg version="1.0" xmlns="http://www.w3.org/2000/svg"
 width="500.000000pt" height="500.000000pt" viewBox="0 0 500.000000 500.000000"
 preserveAspectRatio="xMidYMid meet">
<metadata>
Created by potrace 1.10, written by Peter Selinger 2001-2011
</metadata>
<g transform="translate(0.000000,500.000000) scale(0.100000,-0.100000)"
fill="#000000" stroke="none">
<path d="M2545 4480 c-104 -4 -381 -13 -615 -19 -234 -6 -448 -14 -475 -17
-50 -5 -50 -5 -72 -57 -11 -29 -41 -98 -66 -154 l-46 -103 79 -222 c56 -158
75 -225 67 -230 -24 -15 -156 -31 -247 -31 -96 1 -239 22 -322 47 l-45 13 13
-53 c35 -151 23 -308 -31 -399 -56 -96 -184 -171 -353 -207 -146 -31 -143 -27
-66 -77 37 -24 101 -78 144 -120 211 -209 199 -415 -37 -660 -46 -47 -83 -86
-83 -86 0 0 39 1 87 3 112 4 281 -21 347 -51 148 -68 200 -185 201 -447 l0
-146 28 43 c34 51 132 143 201 188 116 76 269 86 385 25 87 -47 171 -140 224
-251 23 -48 45 -88 49 -88 4 -1 28 21 54 49 26 27 52 50 59 50 7 0 14 -21 18
-55 12 -120 124 -260 266 -334 148 -77 316 -99 463 -62 135 35 193 72 342 219
166 164 239 285 240 399 1 57 3 63 22 63 18 0 127 -30 205 -56 14 -5 14 2 -2
63 -25 97 -24 207 3 290 49 152 208 242 496 284 l83 11 -63 57 c-84 75 -103
96 -154 164 -109 146 -110 336 -3 495 45 69 164 193 226 239 l42 30 -107 6
c-187 10 -312 58 -406 156 -99 105 -132 206 -123 388 3 65 9 131 13 147 l7 29
-45 -31 c-202 -139 -425 -186 -570 -120 l-55 26 -6 93 c-4 52 -10 187 -13 302
l-7 207 -81 -2 c-45 -1 -166 -4 -271 -8z m315 -29 c3 0 6 -9 6 -18 1 -43 15
-347 20 -438 3 -55 11 -106 17 -114 17 -21 84 -61 102 -61 8 0 15 -4 15 -8 0
-13 198 -7 250 7 25 7 55 12 68 12 15 -1 21 3 16 11 -4 7 -3 8 4 4 7 -4 12 -3
12 2 0 5 8 12 18 15 9 4 33 13 52 22 29 12 31 12 15 0 -11 -8 -26 -19 -32 -25
-7 -6 -13 -7 -13 -3 0 4 -6 0 -14 -9 -16 -21 -64 -40 -78 -32 -6 4 -8 2 -5 -3
8 -12 -86 -38 -102 -29 -5 3 -11 0 -14 -6 -3 -10 -9 -10 -29 1 -17 9 -31 10
-42 4 -17 -9 -90 -1 -152 18 -17 5 -39 7 -48 3 -22 -9 -23 -22 -8 -279 13
-211 11 -185 16 -305 1 -52 4 -95 6 -95 1 0 4 -66 5 -146 2 -81 6 -173 9 -205
7 -63 16 -248 21 -429 1 -60 6 -122 10 -137 4 -17 3 -28 -3 -28 -6 0 -8 -10
-4 -22 3 -14 2 -19 -6 -14 -7 4 -12 0 -12 -10 0 -10 -3 -15 -6 -11 -11 10 -64
-53 -64 -77 0 -9 83 -46 104 -46 18 0 19 -2 6 -11 -12 -9 -12 -10 3 -5 18 6
148 -50 155 -66 2 -5 10 -8 17 -8 8 0 22 -11 33 -25 11 -14 23 -25 27 -25 5 0
23 -15 41 -34 24 -25 45 -36 81 -41 26 -5 54 -7 62 -6 7 1 10 -2 7 -7 -3 -6 2
-8 14 -5 11 3 20 11 20 18 0 7 3 34 6 61 4 38 3 46 -6 34 -9 -13 -10 -12 -6 5
3 11 8 37 10 58 10 83 85 199 168 261 13 9 17 14 11 11 -23 -11 -14 2 14 20
25 17 26 17 19 -1 -4 -11 5 -5 22 14 32 35 123 77 192 87 54 8 67 15 48 26
-22 12 -120 -15 -207 -57 -100 -49 -207 -152 -250 -239 -40 -82 -58 -177 -43
-235 l10 -42 -26 8 c-15 4 -45 10 -68 14 -31 5 -50 17 -83 53 -24 26 -70 63
-102 83 -62 37 -206 94 -239 94 -11 0 -20 2 -20 4 0 3 23 27 51 53 l51 49 -21
455 c-24 495 -47 950 -56 1098 -6 88 -5 93 12 86 34 -14 148 -34 198 -34 105
-1 254 47 311 100 11 10 23 19 25 19 3 0 3 -26 1 -58 -16 -223 175 -474 415
-547 26 -8 58 -15 70 -15 17 0 10 -12 -43 -64 -46 -47 -74 -86 -98 -138 -49
-106 -60 -151 -60 -263 0 -108 17 -181 61 -268 24 -48 108 -147 124 -147 15 0
4 40 -13 46 -9 3 -20 14 -23 25 -4 10 -12 19 -19 19 -16 0 -81 130 -94 185 -9
42 -6 242 5 285 3 14 7 31 9 39 1 8 12 27 23 42 12 16 21 35 21 43 0 8 7 22
16 30 8 9 12 21 8 27 -4 7 -3 9 3 6 6 -4 21 9 34 28 13 19 27 35 31 35 19 0
57 56 52 74 -5 15 -3 18 11 13 9 -4 39 -7 67 -7 l50 0 -34 -27 c-63 -52 -166
-167 -194 -215 -59 -102 -78 -177 -71 -276 9 -125 61 -222 187 -349 66 -67 70
-73 46 -73 -31 0 -24 1 -88 -15 -146 -36 -202 -58 -283 -108 -51 -32 -114
-107 -135 -163 -27 -71 -36 -186 -21 -268 6 -33 10 -61 8 -62 -4 -4 -90 18
-123 31 -27 12 -36 11 -65 -3 -32 -16 -33 -19 -37 -87 -4 -87 -32 -150 -103
-239 -69 -86 -166 -186 -180 -186 -8 0 -7 6 2 16 7 9 14 22 15 30 1 8 -28 -12
-64 -44 -126 -111 -207 -142 -364 -142 -167 0 -291 47 -403 152 -84 78 -120
151 -120 243 0 72 0 73 71 192 10 17 15 35 12 39 -19 18 -103 -133 -112 -201
-3 -22 -6 -42 -6 -45 0 -3 -8 7 -16 23 -20 36 -35 34 -86 -13 -24 -22 -45 -40
-48 -40 -3 0 -21 34 -40 74 -19 41 -37 73 -40 71 -3 -2 -19 17 -35 41 -17 24
-33 44 -37 44 -4 0 -23 16 -43 35 -19 20 -37 35 -40 35 -3 0 -15 6 -28 14 -12
9 -47 21 -77 29 -30 8 -56 20 -58 27 -3 9 2 11 19 6 13 -4 31 -8 39 -11 8 -2
28 -8 43 -14 16 -6 39 -11 53 -11 13 0 24 -4 24 -10 0 -5 6 -10 14 -10 8 0 22
-8 32 -17 10 -10 20 -17 23 -15 7 4 46 -25 80 -58 14 -14 28 -24 31 -22 3 2 6
-4 8 -12 2 -9 15 -28 28 -44 20 -22 32 -27 55 -24 16 2 27 8 24 12 -3 5 19 23
47 40 66 40 98 69 109 98 5 13 13 20 19 17 5 -3 10 0 10 8 0 15 82 110 160
184 64 62 53 68 -133 68 -143 0 -152 1 -155 20 -2 11 -8 24 -13 29 -13 15 -11
28 4 20 7 -5 6 -1 -3 10 -8 10 -15 25 -17 34 -1 9 -7 18 -13 20 -5 2 -8 8 -5
13 3 5 -6 37 -20 71 -14 35 -35 88 -45 118 -10 30 -31 87 -45 125 -15 39 -29
82 -32 98 -3 15 -9 27 -14 27 -5 0 -6 6 -3 14 3 8 1 17 -5 21 -6 3 -11 17 -11
30 0 13 -4 27 -10 30 -5 3 -10 15 -10 26 0 10 -4 19 -10 19 -5 0 -10 8 -10 19
0 10 -7 35 -15 54 -8 20 -15 49 -15 64 0 19 -3 24 -9 15 -5 -9 -14 8 -26 50
-10 35 -18 67 -16 72 1 4 -7 23 -18 41 -20 34 -91 238 -91 262 0 7 -5 13 -11
13 -6 0 -9 9 -6 20 3 11 1 20 -4 20 -7 0 -32 68 -34 95 0 6 -8 25 -17 43 -9
18 -24 57 -33 87 -12 43 -21 56 -40 61 -13 3 -30 2 -37 -2 -6 -4 -23 -9 -37
-10 -13 -2 -27 -7 -30 -12 -6 -9 -28 -15 -101 -28 -36 -6 -149 -6 -185 -1 -58
9 -94 20 -90 27 6 10 -62 23 -75 15 -6 -3 -10 -40 -10 -81 0 -47 -4 -73 -10
-69 -6 4 -7 -5 -4 -23 3 -16 2 -32 -2 -35 -5 -3 -9 18 -9 46 -1 29 -4 90 -8
137 -4 47 -4 79 1 72 5 -7 30 -14 56 -17 26 -3 52 -8 57 -11 23 -14 289 -27
289 -14 0 5 7 7 15 3 9 -3 43 0 75 7 33 7 62 12 65 11 11 -3 42 35 39 49 -1 8
-13 47 -27 85 -14 39 -41 114 -60 168 -20 53 -33 97 -30 97 4 0 -1 8 -10 18
-9 10 -17 32 -19 49 -2 31 4 47 79 215 l39 88 125 4 c68 3 250 8 404 11 154 4
287 9 295 11 8 3 109 7 225 10 115 3 211 7 214 9 3 3 154 0 171 -4z m681 -532
c-2 -8 -3 -63 -2 -123 1 -100 9 -153 32 -198 12 -23 11 -30 -2 -26 -21 7 -51
111 -51 172 1 33 -2 64 -5 70 -4 5 -8 21 -9 34 -2 13 -8 30 -15 39 -11 12 -9
18 11 34 27 20 47 19 41 -2z m-34 -131 c-3 -8 -6 -5 -6 6 -1 11 2 17 5 13 3
-3 4 -12 1 -19z m-2015 -286 c42 -125 85 -246 278 -782 78 -217 171 -478 207
-580 36 -102 66 -185 67 -186 0 0 71 2 156 6 148 5 182 3 150 -8 -28 -10 -109
-94 -177 -183 -50 -66 -87 -103 -140 -139 l-72 -49 -78 78 c-90 89 -165 131
-280 157 -142 31 -313 6 -415 -61 -20 -14 -39 -25 -42 -25 -2 0 -6 17 -10 38
-17 107 -120 246 -239 323 -66 43 -198 89 -253 89 l-36 0 30 38 c89 113 122
269 91 438 -15 85 -88 230 -143 283 l-45 44 67 33 c87 42 139 88 195 171 62
91 98 203 105 321 2 50 7 92 9 92 2 0 14 -7 26 -14 91 -60 338 -58 454 3 21
11 43 20 48 20 6 1 26 -48 47 -107z m-776 -379 c-2 -9 -9 -19 -16 -21 -8 -3
-19 -9 -25 -14 -35 -29 -71 -53 -80 -54 -5 0 -19 -2 -31 -2 -27 -2 -46 -41
-31 -68 6 -10 20 -27 31 -38 12 -10 20 -23 18 -28 -1 -5 2 -7 7 -3 6 3 15 -4
21 -15 6 -11 7 -20 3 -20 -4 0 -1 -6 7 -13 23 -19 41 -57 34 -69 -4 -6 -3 -8
4 -4 13 8 46 -88 38 -110 -3 -8 -2 -12 4 -9 10 6 12 -1 16 -95 3 -75 -12 -181
-28 -191 -7 -5 -10 -9 -5 -9 11 0 -53 -124 -69 -133 -8 -5 -12 -12 -9 -18 4
-5 1 -9 -4 -9 -13 0 -10 -22 4 -32 6 -4 21 -8 33 -8 15 0 22 -5 19 -12 -2 -8
-19 -12 -38 -12 -19 1 -61 2 -94 3 l-60 1 27 28 c49 49 64 67 97 120 19 29 39
49 45 45 6 -3 8 -3 4 1 -3 4 7 46 23 94 18 51 29 101 28 123 -2 21 0 41 4 45
4 4 3 12 -1 18 -5 6 -17 34 -27 61 -10 28 -32 70 -48 95 -34 49 -130 147 -192
196 l-40 32 45 11 c25 7 66 21 92 31 26 11 53 20 61 20 8 0 20 7 27 15 7 8 21
15 31 15 10 0 31 11 46 25 34 29 32 29 29 8z m9 -987 c7 3 16 1 20 -5 4 -7 -9
-11 -37 -11 -40 1 -42 2 -23 16 11 8 21 10 23 5 2 -5 9 -8 17 -5z m105 -36
c19 -11 28 -19 20 -19 -8 0 -31 8 -50 19 -19 11 -28 19 -20 19 8 0 31 -8 50
-19z m70 -34 c0 -11 -19 -15 -25 -6 -3 5 1 10 9 10 9 0 16 -2 16 -4z m79 -63
c-3 -19 2 -33 12 -33 11 0 38 -24 42 -37 1 -4 6 -7 11 -5 5 2 6 -4 3 -12 -4
-9 1 -20 11 -25 21 -11 57 -116 46 -133 -4 -6 -3 -8 3 -5 6 4 14 -4 17 -17 5
-22 46 -45 46 -26 0 13 52 43 76 43 13 0 22 3 19 7 -5 8 10 14 73 30 46 11 37
-8 -11 -25 -20 -7 -37 -11 -37 -8 0 2 -10 -5 -22 -17 -12 -11 -25 -20 -29 -20
-4 0 -14 -6 -21 -13 -7 -7 -26 -23 -43 -35 -16 -13 -49 -41 -72 -64 l-43 -40
-1 39 c0 21 -2 49 -4 63 -2 14 -4 51 -6 83 -1 32 -6 60 -11 63 -4 3 -8 16 -8
29 0 30 -27 92 -53 122 -11 12 -16 26 -12 32 7 13 16 15 14 4z m471 -204 c0
-10 -49 -21 -60 -14 -19 12 -9 20 25 21 19 0 35 -3 35 -7z m40 1 c0 -5 -7 -10
-16 -10 -8 0 -12 5 -9 10 3 6 10 10 16 10 5 0 9 -4 9 -10z m620 -455 c0 -8 -4
-15 -10 -15 -5 0 -7 7 -4 15 4 8 8 15 10 15 2 0 4 -7 4 -15z m18 -56 c-3 -8
-7 -3 -11 10 -4 17 -3 21 5 13 5 -5 8 -16 6 -23z m127 -117 c14 -8 15 -11 5
-12 -17 0 -102 75 -94 83 3 3 20 -10 37 -28 18 -17 41 -37 52 -43z m765 23
c-7 -8 -18 -15 -24 -15 -6 0 -2 7 8 15 25 19 32 19 16 0z m-40 -30 c0 -8 -4
-15 -10 -15 -5 0 -7 7 -4 15 4 8 8 15 10 15 2 0 4 -7 4 -15z m-660 -36 c14 -7
29 -12 33 -11 5 1 6 -2 2 -8 -8 -13 -68 22 -73 42 -2 9 -1 9 5 2 4 -6 19 -17
33 -25z m585 -8 c3 -5 2 -12 -3 -15 -5 -3 -9 1 -9 9 0 17 3 19 12 6z m-445
-52 c10 -6 4 -7 -15 -3 -16 4 -37 11 -45 15 -10 6 -4 7 15 3 17 -4 37 -11 45
-15z m375 11 c-3 -5 -14 -10 -23 -10 -15 0 -15 2 -2 10 20 13 33 13 25 0z
m-330 -20 c-3 -5 -10 -10 -16 -10 -5 0 -9 5 -9 10 0 6 7 10 16 10 8 0 12 -4 9
-10z m120 -10 c3 -5 -3 -10 -14 -10 -11 0 -23 5 -26 10 -3 6 3 10 14 10 11 0
23 -4 26 -10z"/>
<path d="M2217 4383 c-1 0 -161 -4 -356 -7 -272 -4 -356 -8 -363 -18 -12 -20
-10 -46 7 -78 9 -17 13 -30 10 -30 -3 0 -1 -9 5 -20 9 -16 8 -18 -5 -14 -8 4
-15 11 -16 18 -2 36 -12 59 -35 86 l-27 29 -18 -23 c-10 -12 -30 -59 -45 -103
l-28 -81 23 -69 c12 -37 26 -77 31 -88 13 -33 38 -99 40 -110 4 -15 7 -25 30
-85 45 -116 78 -219 72 -224 -3 -3 0 -6 6 -6 6 0 9 -9 7 -20 -2 -11 0 -18 6
-15 5 4 9 -3 9 -15 0 -11 7 -32 16 -45 9 -13 13 -29 10 -34 -4 -5 -2 -12 3
-15 4 -3 19 -38 31 -78 13 -40 26 -77 30 -83 6 -8 15 -38 26 -80 1 -5 3 -17 5
-25 2 -8 10 -21 17 -29 8 -8 11 -22 9 -33 -3 -10 -2 -16 3 -13 4 3 11 -11 15
-31 3 -20 10 -44 15 -53 8 -16 47 -110 60 -146 4 -11 20 -58 35 -105 15 -47
32 -89 36 -94 5 -6 9 -22 9 -37 0 -15 3 -29 8 -31 4 -1 15 -24 24 -50 12 -34
13 -48 5 -52 -7 -2 -4 -5 6 -5 9 -1 17 -7 17 -14 0 -7 12 -46 26 -87 14 -41
26 -83 27 -92 1 -10 4 -18 8 -18 6 0 36 -82 43 -115 2 -5 10 -27 19 -49 15
-34 20 -37 44 -31 23 5 25 4 14 -8 -8 -11 -9 -17 -1 -22 6 -3 8 -10 5 -15 -7
-11 2 -11 236 -12 132 0 193 3 209 12 13 7 65 14 115 15 137 3 138 3 167 29
14 14 30 22 34 18 5 -4 6 -3 1 2 -4 5 0 20 8 33 24 36 3 27 -40 -17 l-39 -40
-91 0 c-49 0 -121 -7 -160 -15 -82 -18 -435 -22 -435 -5 0 6 4 10 8 10 4 0 35
24 67 53 l59 52 319 -4 c284 -3 318 -2 306 12 -8 8 -16 11 -19 7 -3 -4 -14 -6
-25 -4 -26 4 -402 15 -483 14 -42 -1 -62 2 -57 9 4 7 82 9 238 5 216 -6 316
-7 344 -5 15 1 30 49 27 91 -1 19 -7 121 -13 225 -6 105 -15 251 -20 325 -6
74 -11 164 -12 200 -1 36 -5 112 -10 170 -4 58 -11 157 -14 220 -7 143 -12
233 -25 425 -5 83 -14 233 -21 335 -6 102 -16 190 -21 195 -7 8 -563 16 -571
8z m567 -160 c4 -76 16 -273 26 -438 10 -165 24 -385 30 -490 6 -104 20 -341
31 -525 11 -184 23 -386 26 -448 l6 -114 -54 6 c-30 3 -168 5 -307 6 -232 0
-253 1 -258 18 -3 9 -21 58 -39 107 -19 50 -66 178 -105 285 -75 203 -168 454
-313 845 -47 127 -109 293 -137 370 -28 77 -67 183 -87 235 -19 52 -47 127
-61 165 -14 39 -29 74 -34 80 -4 5 -8 12 -8 16 0 4 154 8 342 9 188 0 344 3
347 5 2 3 136 5 296 5 l292 0 7 -137z m-1309 5 c36 -104 228 -624 250 -678 8
-19 44 -116 80 -215 36 -99 79 -214 95 -255 27 -70 49 -128 180 -485 28 -77
74 -200 102 -273 l50 -133 -63 -59 c-35 -33 -64 -58 -64 -57 -1 1 -55 153
-120 337 -116 331 -159 452 -257 725 -27 77 -56 158 -63 180 -7 22 -48 137
-90 255 -42 118 -94 265 -115 326 -22 61 -50 141 -64 177 l-25 66 32 95 c18
52 34 93 36 91 2 -2 18 -46 36 -97z m75 -79 c0 -10 5 -21 10 -24 6 -3 10 -14
10 -23 0 -9 7 -30 15 -46 9 -16 17 -37 19 -45 2 -9 7 -25 11 -36 35 -86 42
-112 34 -130 -8 -20 -8 -20 -9 0 -2 11 -2 23 -1 27 0 4 -6 19 -14 34 -8 15
-12 31 -9 36 3 4 1 8 -4 8 -5 0 -15 20 -22 45 -7 25 -16 48 -21 51 -4 2 -5 12
-2 21 4 10 2 14 -4 10 -7 -5 -9 0 -6 13 3 11 0 20 -6 20 -6 0 -11 14 -11 30 0
17 -4 30 -9 30 -5 0 -12 8 -15 17 -6 15 -4 15 14 -2 11 -10 20 -26 20 -36z
m156 -412 c15 -45 27 -90 26 -100 0 -9 3 -15 9 -12 5 4 9 -6 9 -21 0 -15 9
-42 21 -61 14 -23 17 -33 8 -31 -14 3 -57 106 -61 146 -1 12 -6 22 -11 22 -5
0 -7 6 -4 14 3 8 -1 20 -9 27 -8 7 -13 18 -10 26 3 7 2 13 -2 13 -10 0 -32 57
-25 64 12 12 22 -7 49 -87z m109 -299 c9 -24 18 -50 20 -60 2 -9 11 -30 19
-47 12 -22 13 -31 4 -31 -6 0 -4 -6 6 -13 10 -7 20 -29 22 -47 3 -21 1 -30 -5
-25 -15 16 -53 117 -58 155 -2 19 -9 38 -16 42 -7 4 -7 8 -2 8 6 0 5 3 -1 8
-15 10 -28 52 -16 52 6 0 18 -19 27 -42z m85 -253 c7 -9 8 -15 2 -15 -5 0 -12
7 -16 15 -3 8 -4 15 -2 15 2 0 9 -7 16 -15z m27 -54 c3 -14 13 -36 21 -48 9
-16 11 -23 3 -23 -6 0 -2 -13 10 -29 12 -16 19 -36 16 -44 -3 -9 1 -18 10 -21
8 -4 13 -13 9 -21 -3 -8 -2 -15 3 -15 7 0 38 -91 33 -97 -6 -8 -16 4 -14 15 2
6 -2 12 -7 12 -5 0 -13 10 -16 23 -14 48 -69 193 -78 204 -5 7 -6 22 -2 34 5
13 3 19 -3 15 -5 -3 -12 0 -15 7 -3 8 1 14 9 14 8 0 17 -12 21 -26z m138 -383
c1 -16 -1 -28 -4 -28 -10 0 -32 81 -25 92 9 14 25 -25 29 -64z m20 -47 c-3 -5
0 -13 6 -16 5 -4 8 -13 5 -20 -3 -8 0 -15 6 -17 6 -2 12 -17 13 -32 2 -16 8
-32 14 -35 5 -4 12 -18 14 -31 6 -30 15 -55 32 -95 23 -53 54 -130 70 -181 9
-27 26 -56 37 -65 19 -15 19 -15 -6 -27 -23 -10 -26 -9 -26 8 0 11 -10 45 -22
77 -12 32 -21 61 -20 66 1 4 -3 7 -8 7 -6 0 -10 6 -9 13 1 6 -7 34 -19 60 -12
27 -22 54 -22 61 0 7 -4 16 -9 22 -5 5 -14 27 -21 49 -6 22 -18 54 -26 72 -22
48 -29 93 -15 93 7 0 10 -4 6 -9z"/>
<path d="M1587 4298 c31 -22 49 -54 80 -148 29 -89 114 -325 123 -345 5 -11
23 -59 39 -107 39 -113 156 -439 233 -648 34 -91 76 -208 94 -260 18 -52 49
-140 69 -195 20 -55 53 -148 74 -208 21 -59 40 -109 42 -111 2 -2 119 -7 259
-11 140 -4 258 -9 263 -12 4 -2 7 1 7 6 0 16 15 15 -320 19 l-196 2 -34 98
c-18 53 -34 105 -34 114 0 9 -3 15 -7 12 -4 -2 -25 51 -47 119 -23 67 -50 145
-61 172 -11 28 -29 77 -41 110 -12 33 -29 76 -37 96 -8 20 -16 48 -16 62 -1
14 -5 23 -8 22 -3 -2 -21 42 -41 98 -19 56 -58 167 -87 247 -28 80 -67 188
-85 240 -18 52 -43 118 -54 145 -24 56 -96 264 -108 310 -10 39 -7 33 -32 88
-12 27 -22 52 -22 57 0 12 -55 50 -71 50 -8 0 1 -10 18 -22z"/>
<path d="M1705 3407 c-7 -125 -4 -160 10 -145 3 2 10 40 15 84 9 62 8 92 -3
139 l-14 60 -8 -138z"/>
<path d="M1766 3233 c-11 -57 -14 -96 -9 -111 8 -20 12 -14 31 47 19 60 21 77
12 111 -6 22 -12 40 -13 40 -2 0 -11 -39 -21 -87z"/>
<path d="M1842 3039 c-13 -44 -21 -83 -18 -86 2 -3 10 13 17 36 7 23 15 41 18
41 3 0 7 20 9 45 1 25 1 45 0 45 -2 0 -14 -36 -26 -81z"/>
<path d="M3814 2414 c-19 -15 -19 -15 1 -6 11 5 27 12 35 15 13 5 13 6 -1 6
-8 1 -24 -6 -35 -15z"/>
<path d="M3720 2398 c-77 -33 -111 -51 -106 -55 2 -3 15 1 28 8 12 7 52 23 88
36 37 13 54 22 40 22 -14 0 -36 -5 -50 -11z"/>
<path d="M3499 2253 c-7 -16 -15 -31 -17 -35 -2 -5 0 -8 5 -8 9 0 35 61 29 67
-1 2 -9 -9 -17 -24z"/>
<path d="M3460 2155 c0 -8 2 -15 4 -15 2 0 6 7 10 15 3 8 1 15 -4 15 -6 0 -10
-7 -10 -15z"/>
<path d="M2380 2110 c44 -40 87 -62 108 -58 20 4 -78 72 -118 83 -23 5 -22 3
10 -25z"/>
<path d="M2469 2120 c45 -29 110 -54 118 -46 4 4 -3 9 -15 13 -12 3 -19 9 -16
14 3 5 -2 6 -10 3 -8 -3 -23 -1 -33 6 -15 9 -14 10 7 4 14 -3 22 -3 18 1 -4 4
-18 9 -32 10 -13 2 -35 6 -48 10 -17 5 -14 1 11 -15z"/>
<path d="M2604 1971 c-3 -3 -26 -11 -52 -18 -65 -18 -63 -18 -104 -35 -40 -18
-59 -32 -124 -98 -61 -61 -86 -116 -85 -185 0 -33 -2 -37 -10 -22 -6 10 -8 25
-5 33 3 8 1 14 -5 14 -6 0 -7 5 -4 10 3 6 2 10 -3 10 -28 0 -18 -105 16 -183
10 -23 45 -70 78 -103 98 -102 226 -163 385 -186 68 -10 92 -9 162 6 75 17
143 43 175 69 10 8 10 12 1 18 -7 4 -19 1 -26 -7 -17 -16 -33 -18 -33 -4 0 6
5 10 11 10 20 0 104 63 167 126 35 34 63 64 63 66 -2 12 13 47 18 43 4 -2 8 1
9 8 15 138 15 145 -7 189 -18 38 -80 110 -123 143 -47 37 -79 55 -95 55 -10 0
-23 4 -28 9 -23 21 -167 42 -270 40 -58 -2 -108 -5 -111 -8z m266 -25 c186
-33 337 -149 356 -271 25 -171 -177 -362 -421 -398 -185 -27 -435 94 -509 246
-57 116 -39 203 60 297 121 114 314 162 514 126z m-624 -371 c-3 -8 0 -15 6
-15 6 0 9 -3 5 -6 -11 -11 24 -71 67 -114 11 -11 17 -22 14 -26 -8 -7 -68 50
-68 65 0 6 -5 11 -12 11 -6 0 -8 3 -5 7 4 3 1 16 -6 27 -23 35 -27 66 -10 66
9 0 13 -6 9 -15z m158 -210 c22 -19 44 -35 49 -35 5 0 21 -9 37 -20 15 -11 36
-21 46 -23 11 -1 25 -6 32 -11 7 -4 23 -9 35 -11 116 -15 153 -19 160 -17 5 2
30 4 57 7 26 2 64 11 85 19 42 18 55 20 55 8 0 -10 -66 -35 -100 -39 -48 -4
-77 -10 -88 -17 -6 -3 -13 -2 -16 3 -3 5 -25 7 -47 5 -23 -2 -69 3 -103 12
-90 24 -239 104 -259 140 -15 26 17 15 57 -21z"/>
<path d="M2291 1633 c14 -38 33 -57 114 -117 144 -107 214 -136 332 -136 148
0 299 35 390 91 46 28 35 36 -15 10 -22 -11 -42 -17 -46 -14 -3 4 -6 2 -6 -3
0 -16 -118 -52 -212 -64 -158 -21 -257 2 -383 90 -107 76 -146 110 -138 123 3
5 1 7 -4 4 -6 -4 -14 4 -17 18 -4 14 -11 25 -16 25 -6 0 -5 -11 1 -27z"/>
<path d="M3223 1963 c8 -7 119 -5 126 3 2 2 -26 4 -64 4 -38 0 -65 -3 -62 -7z"/>
<path d="M2186 1414 c-21 -25 -36 -47 -33 -50 5 -5 65 54 78 79 18 33 -7 17
-45 -29z"/>
<path d="M2208 1398 c-51 -63 -56 -78 -14 -38 39 36 61 68 53 76 -2 3 -20 -15
-39 -38z"/>
<path d="M2243 1321 c-34 -40 -39 -50 -27 -55 19 -7 98 67 92 86 -8 24 -24 17
-65 -31z m37 5 c0 -2 -8 -10 -17 -17 -16 -13 -17 -12 -4 4 13 16 21 21 21 13z"/>
<path d="M2341 1321 c0 -7 -17 -36 -36 -63 -26 -35 -30 -46 -16 -39 27 15 64
77 58 98 -3 11 -5 12 -6 4z"/>
<path d="M2754 1155 c-15 -20 -24 -38 -22 -41 7 -6 58 54 58 67 0 16 -8 10
-36 -26z"/>
<path d="M694 2862 c3 -5 26 -19 51 -31 25 -12 45 -26 45 -31 0 -6 5 -10 11
-10 8 0 7 5 -2 16 -14 18 -114 71 -105 56z"/>
<path d="M820 2784 c0 -5 17 -26 37 -45 20 -18 31 -25 23 -14 -29 38 -60 70
-60 59z"/>
<path d="M900 2673 c0 -5 8 -17 17 -28 14 -18 15 -18 9 -2 -3 10 -6 23 -6 28
0 5 -4 9 -10 9 -5 0 -10 -3 -10 -7z"/>
<path d="M931 2604 c0 -11 3 -14 6 -6 3 7 2 16 -1 19 -3 4 -6 -2 -5 -13z"/>
<path d="M941 2528 c-1 -27 4 -48 9 -48 12 0 12 34 0 70 -7 20 -8 16 -9 -22z"/>
<path d="M941 2443 c-1 -6 -4 -20 -7 -30 -5 -17 -5 -17 6 0 6 10 9 23 6 30 -3
9 -5 9 -5 0z"/>
<path d="M920 2379 c0 -5 5 -7 10 -4 6 3 10 8 10 11 0 2 -4 4 -10 4 -5 0 -10
-5 -10 -11z"/>
<path d="M878 2318 c-14 -14 -15 -18 -4 -18 8 0 17 7 20 16 9 23 4 24 -16 2z"/>
<path d="M913 2273 c15 -2 39 -2 55 0 15 2 2 4 -28 4 -30 0 -43 -2 -27 -4z"/>
<path d="M1035 2260 c3 -5 11 -10 16 -10 6 0 7 5 4 10 -3 6 -11 10 -16 10 -6
0 -7 -4 -4 -10z"/>
<path d="M1104 2235 c11 -8 24 -15 28 -15 5 0 26 -11 48 -25 22 -14 40 -22 40
-17 0 10 -62 46 -105 61 -28 10 -29 10 -11 -4z"/>
<path d="M1250 2142 c0 -12 19 -26 26 -19 2 2 -2 10 -11 17 -9 8 -15 8 -15 2z"/>
<path d="M1290 2074 c0 -8 5 -12 10 -9 6 4 8 11 5 16 -9 14 -15 11 -15 -7z"/>
<path d="M1317 2000 c3 -30 7 -57 9 -59 8 -9 2 75 -6 94 -5 12 -6 -1 -3 -35z"/>
<path d="M1316 1913 c-6 -14 -5 -15 5 -6 7 7 10 15 7 18 -3 3 -9 -2 -12 -12z"/>
<path d="M1505 1899 c-22 -6 -15 -7 28 -4 32 1 61 6 64 9 9 8 -56 5 -92 -5z"/>
<path d="M1630 1906 c0 -2 16 -6 35 -8 19 -2 35 0 35 4 0 4 -16 8 -35 8 -19 0
-35 -2 -35 -4z"/>
<path d="M1438 1893 c6 -2 18 -2 25 0 6 3 1 5 -13 5 -14 0 -19 -2 -12 -5z"/>
<path d="M1728 1893 c6 -2 18 -2 25 0 6 3 1 5 -13 5 -14 0 -19 -2 -12 -5z"/>
<path d="M1368 1883 c12 -2 30 -2 40 0 9 3 -1 5 -23 4 -22 0 -30 -2 -17 -4z"/>
<path d="M1780 1880 c0 -5 5 -10 11 -10 5 0 7 5 4 10 -3 6 -8 10 -11 10 -2 0
-4 -4 -4 -10z"/>
<path d="M1864 1825 c47 -32 57 -32 20 0 -16 14 -35 25 -43 25 -8 0 3 -11 23
-25z"/>
<path d="M2110 1810 c-23 -7 -23 -8 -3 -9 12 -1 25 4 28 9 3 6 5 10 3 9 -2 -1
-14 -5 -28 -9z"/>
<path d="M1925 1780 c3 -5 14 -10 23 -10 15 0 15 2 2 10 -20 13 -33 13 -25 0z"/>
<path d="M1995 1770 c-28 -7 -28 -8 -5 -9 14 0 32 4 40 9 17 11 8 11 -35 0z"/>
</g>
</svg>
