 <svg version="1.0" xmlns="http://www.w3.org/2000/svg"  width="500.000000pt" height="500.000000pt" viewBox="0 0 500.000000 500.000000"  preserveAspectRatio="xMidYMid meet">  <g transform="translate(0.000000,500.000000) scale(0.100000,-0.100000)" fill="#000000" stroke="none"> <path d="M2540 4480 c-102 -4 -381 -13 -620 -19 -239 -6 -453 -14 -475 -17 l-40 -5 -67 -155 -68 -154 75 -212 c42 -116 74 -218 73 -227 -8 -42 -284 -56 -453 -23 -55 11 -113 23 -129 28 -29 7 -29 6 -22 -27 33 -161 26 -301 -20 -396 -51 -106 -180 -185 -371 -228 -58 -13 -107 -26 -110 -28 -2 -3 27 -26 64 -53 108 -77 205 -179 244 -259 31 -63 34 -78 34 -155 -1 -71 -6 -95 -28 -144 -34 -74 -84 -143 -166 -228 l-64 -68 89 0 c135 0 278 -25 351 -60 84 -42 127 -94 159 -195 23 -70 26 -99 28 -227 0 -82 3 -148 6 -147 3 0 24 25 48 55 59 74 154 151 232 188 59 28 74 31 165 31 95 0 103 -2 163 -34 85 -46 169 -139 227 -253 l47 -90 53 52 c29 29 57 50 63 46 5 -3 12 -28 15 -56 3 -28 21 -78 38 -111 117 -219 431 -346 691 -280 135 35 208 82 356 231 148 149 221 272 228 383 l3 62 41 -3 c22 -1 74 -13 115 -26 41 -13 75 -21 75 -17 0 3 -7 38 -15 76 -41 196 6 350 135 437 70 47 211 94 345 115 l105 16 -91 85 c-148 139 -209 251 -209 382 0 70 29 169 68 230 40 63 126 159 197 221 33 28 61 55 63 59 1 4 -41 10 -95 13 -173 10 -284 52 -383 144 -105 97 -146 217 -137 403 3 63 9 128 13 144 l7 29 -46 -31 c-77 -53 -224 -120 -304 -138 -99 -22 -192 -15 -266 19 l-57 26 -1 48 c-1 26 -6 161 -13 298 l-11 250 -85 1 c-47 1 -168 -2 -270 -6z m-989 -166 c7 -8 25 -22 40 -30 15 -7 31 -24 34 -36 4 -13 27 -79 51 -148 25 -69 59 -163 75 -210 17 -47 42 -114 55 -150 13 -36 82 -229 154 -430 72 -201 138 -383 147 -405 8 -22 35 -94 58 -160 83 -233 133 -371 154 -426 l21 -56 256 -6 c212 -6 259 -10 277 -23 21 -15 14 -16 -98 -10 -66 3 -200 6 -297 6 l-178 0 -15 38 c-9 20 -29 73 -45 117 -16 44 -52 141 -80 215 -28 74 -71 189 -94 255 -24 66 -55 149 -69 184 -15 35 -24 67 -21 72 3 5 0 9 -5 9 -6 0 -11 4 -11 10 0 5 -22 71 -50 145 -52 142 -57 161 -38 149 7 -4 8 -3 4 5 -4 6 -11 9 -15 6 -13 -8 -116 269 -106 285 3 6 2 10 -3 10 -5 0 -19 24 -30 53 -11 28 -34 90 -52 137 -18 47 -33 95 -34 107 0 11 -4 19 -7 17 -4 -2 -10 8 -14 23 -3 15 -26 78 -51 140 -24 63 -44 116 -44 118 0 11 18 4 31 -11z m-6 -300 c53 -142 110 -295 127 -339 30 -77 32 -86 29 -206 -1 -70 -5 -139 -10 -154 -8 -32 -9 -29 -201 513 l-110 312 27 80 c17 48 31 74 35 66 4 -7 50 -129 103 -272z m1932 -222 c2 -114 43 -224 125 -330 73 -94 226 -192 327 -208 23 -4 41 -9 41 -13 0 -3 -18 -23 -40 -44 -167 -157 -217 -445 -116 -662 13 -28 43 -76 68 -106 l45 -56 -59 -12 c-73 -15 -192 -75 -260 -133 -118 -98 -183 -233 -176 -363 3 -62 2 -66 -17 -61 -11 2 -37 8 -58 12 -28 5 -53 21 -91 59 -56 56 -167 119 -266 149 -30 10 -61 20 -69 22 -10 3 0 20 36 57 l50 52 -41 807 c-22 444 -38 809 -35 812 2 2 33 -2 69 -11 88 -21 245 -13 320 16 40 16 136 68 145 80 1 1 1 -30 2 -67z m-1832 -732 c250 -701 363 -1016 382 -1069 l17 -44 155 7 c149 6 155 5 131 -11 -38 -26 -123 -119 -182 -199 -29 -40 -67 -79 -84 -87 -18 -9 -48 -30 -69 -48 -35 -31 -38 -32 -47 -13 -25 47 -136 140 -208 175 -94 46 -162 62 -265 63 -105 1 -193 -19 -262 -61 -31 -18 -57 -32 -59 -31 -1 2 -12 31 -23 66 -12 35 -34 82 -48 105 -87 138 -254 247 -417 271 l-48 8 25 26 c63 67 101 191 100 322 0 149 -45 271 -141 386 l-50 59 60 29 c178 87 296 289 299 514 1 55 3 62 18 56 152 -64 324 -62 474 4 29 13 44 15 48 8 4 -6 91 -247 194 -536z m123 352 c21 -53 21 -54 2 -141 -11 -48 -23 -98 -28 -110 -8 -21 -9 -20 -20 17 -10 32 -9 54 3 112 8 39 15 97 15 127 0 31 2 54 4 52 2 -2 13 -28 24 -57z m80 -335 c-10 -37 -24 -82 -31 -100 l-13 -32 -22 64 -22 64 32 94 31 95 22 -58 c22 -59 22 -59 3 -127z m545 -984 c42 -31 76 -57 74 -57 -1 -1 -72 0 -156 2 l-155 3 60 54 c32 30 68 54 80 55 11 0 55 -26 97 -57z m99 11 c83 -42 90 -48 69 -56 -20 -7 -36 -1 -87 33 -58 37 -95 69 -81 69 4 0 48 -21 99 -46z m-277 -595 l18 -40 -48 -49 c-29 -30 -53 -46 -58 -41 -5 5 -11 38 -14 73 -6 66 11 123 55 188 l17 25 6 -58 c4 -32 15 -76 24 -98z m92 78 c46 -52 216 -167 281 -189 133 -46 374 -22 508 51 30 16 54 26 54 23 0 -11 -90 -85 -139 -116 -24 -16 -67 -36 -96 -46 -61 -21 -211 -38 -202 -23 4 6 -3 8 -17 6 -75 -15 -317 93 -302 134 3 7 1 15 -4 18 -6 4 -10 0 -10 -7 -1 -7 -16 5 -35 26 -38 43 -75 131 -74 174 l1 27 8 -29 c5 -15 17 -37 27 -49z m-30 -176 c10 -16 7 -26 -13 -57 -36 -54 -71 -79 -89 -64 -22 18 -18 34 14 58 16 12 38 35 47 52 21 35 25 36 41 11z m60 -93 c-4 -13 -23 -43 -43 -66 -35 -41 -37 -42 -55 -26 -18 16 -17 19 31 66 28 27 50 54 50 61 0 8 3 8 11 0 6 -6 9 -22 6 -35z m663 -76 c0 -24 -116 -103 -184 -125 -76 -26 -80 -22 -40 32 35 47 42 51 108 66 39 8 78 20 86 25 19 12 30 13 30 2z"/> <path d="M1710 3870 c0 -7 3 -10 7 -7 3 4 3 10 0 14 -4 3 -7 0 -7 -7z"/> <path d="M1750 3830 c0 -7 3 -10 7 -7 3 4 3 10 0 14 -4 3 -7 0 -7 -7z"/> <path d="M1810 3605 c-10 -12 -10 -15 4 -15 9 0 16 7 16 15 0 8 -2 15 -4 15 -2 0 -9 -7 -16 -15z"/> <path d="M1850 3480 c0 -7 3 -10 7 -7 3 4 3 10 0 14 -4 3 -7 0 -7 -7z"/> <path d="M1960 3190 c0 -7 3 -10 7 -7 3 4 3 10 0 14 -4 3 -7 0 -7 -7z"/> <path d="M2160 2640 c0 -7 3 -10 7 -7 3 4 3 10 0 14 -4 3 -7 0 -7 -7z"/> <path d="M2210 2510 c0 -7 3 -10 7 -7 3 4 3 10 0 14 -4 3 -7 0 -7 -7z"/> <path d="M2227 2491 c-4 -17 -3 -21 5 -13 5 5 8 16 6 23 -3 8 -7 3 -11 -10z"/> <path d="M2246 2397 c3 -10 9 -15 12 -12 3 3 0 11 -7 18 -10 9 -11 8 -5 -6z"/> <path d="M2316 1517 c3 -10 9 -15 12 -12 3 3 0 11 -7 18 -10 9 -11 8 -5 -6z"/> <path d="M2343 1490 c1 -20 8 -25 20 -14 7 8 -3 34 -13 34 -5 0 -8 -9 -7 -20z"/> <path d="M2404 1468 c-4 -7 -3 -8 4 -4 7 4 12 9 12 12 0 8 -9 4 -16 -8z"/> <path d="M2603 1333 c4 -3 10 -3 14 0 3 4 0 7 -7 7 -7 0 -10 -3 -7 -7z"/> </g> </svg> 