<?xml version="1.0" standalone="no"?>
<!DOCTYPE svg PUBLIC "-//W3C//DTD SVG 20010904//EN"
 "http://www.w3.org/TR/2001/REC-SVG-20010904/DTD/svg10.dtd">
<svg version="1.0" xmlns="http://www.w3.org/2000/svg"
 width="900.000000pt" height="900.000000pt" viewBox="0 0 900.000000 900.000000"
 preserveAspectRatio="xMidYMid meet">
<metadata>
Created by potrace 1.10, written by Peter Selinger 2001-2011
</metadata>
<g transform="translate(0.000000,900.000000) scale(0.100000,-0.100000)"
fill="#FAFAFA" stroke="none">
<path d="M5726 7908 c-2 -7 -7 -30 -10 -52 -3 -21 -17 -55 -31 -75 -14 -21
-25 -49 -25 -63 0 -14 -11 -46 -25 -69 -14 -24 -25 -53 -25 -64 0 -11 -7 -31
-16 -44 -9 -12 -22 -45 -30 -73 -7 -28 -22 -57 -33 -65 -12 -8 -21 -22 -21
-32 0 -10 -9 -30 -20 -44 -12 -15 -27 -48 -35 -75 -8 -27 -22 -55 -30 -62 -8
-7 -15 -17 -15 -22 0 -6 -11 -23 -25 -40 -14 -16 -28 -42 -32 -56 -3 -15 -14
-33 -24 -40 -10 -6 -20 -25 -24 -41 -3 -16 -17 -37 -31 -45 -13 -9 -24 -23
-24 -31 0 -8 -9 -19 -20 -25 -11 -6 -20 -20 -20 -31 0 -11 -11 -24 -25 -31
-14 -6 -30 -24 -37 -40 -7 -16 -27 -37 -45 -48 -27 -16 -37 -17 -62 -7 -28 10
-31 15 -31 57 1 25 8 63 17 85 10 26 17 87 20 177 5 124 4 138 -12 144 -22 9
-35 -11 -35 -55 0 -19 -7 -42 -16 -52 -8 -9 -24 -66 -35 -125 -10 -60 -26
-123 -34 -141 -8 -17 -15 -40 -15 -51 0 -11 -11 -27 -25 -36 -21 -14 -25 -24
-25 -69 0 -28 -4 -57 -8 -63 -9 -14 -67 -25 -87 -18 -18 7 -48 72 -39 86 19
31 26 980 7 999 -15 15 -20 -18 -28 -181 -4 -78 -13 -149 -25 -190 -11 -36
-24 -121 -29 -189 -5 -67 -14 -128 -19 -133 -6 -6 -8 -24 -5 -42 3 -18 -2 -43
-11 -61 -9 -16 -16 -50 -16 -75 0 -25 -5 -63 -10 -85 -15 -65 -81 -101 -96
-52 -11 36 -33 55 -84 72 -45 15 -49 19 -55 57 -5 27 -13 42 -26 45 -10 3 -29
21 -41 41 -76 118 -87 140 -88 165 0 16 -11 38 -25 52 -13 14 -28 41 -34 60
-5 19 -19 46 -30 61 -11 14 -24 42 -27 63 -13 66 -61 140 -82 127 -5 -3 -12
-24 -16 -47 -4 -23 -18 -60 -31 -84 -14 -23 -25 -51 -25 -62 0 -11 -8 -31 -18
-44 -26 -34 -82 -145 -82 -163 0 -9 -9 -20 -19 -26 -11 -5 -25 -26 -32 -45 -7
-19 -20 -37 -30 -40 -9 -3 -20 -14 -25 -24 -16 -33 -112 -131 -128 -131 -9 0
-23 -11 -31 -24 -24 -37 -63 -39 -109 -8 -46 31 -81 83 -91 132 -4 19 -13 42
-20 50 -7 8 -16 31 -20 50 -4 19 -18 51 -31 70 -13 19 -24 45 -24 57 0 35 -18
73 -35 73 -15 0 -22 20 -27 74 -2 16 -9 31 -15 34 -18 5 -17 -71 1 -106 7 -15
16 -63 20 -106 4 -58 11 -85 25 -100 15 -16 22 -46 29 -120 13 -129 4 -159
-46 -174 -46 -13 -125 -2 -151 22 -11 10 -38 20 -62 22 -23 2 -47 10 -53 18
-6 9 -32 24 -58 35 -27 11 -48 25 -48 30 0 5 -30 29 -67 54 -38 25 -109 86
-160 136 -51 50 -99 91 -108 91 -9 0 -19 9 -22 20 -3 11 -9 20 -14 20 -12 0
-11 -34 1 -46 6 -6 13 -35 16 -65 3 -30 15 -67 26 -83 15 -20 23 -55 29 -114
7 -61 15 -92 28 -106 15 -17 20 -44 26 -139 4 -65 4 -158 0 -206 -6 -81 -9
-90 -31 -100 -13 -6 -24 -19 -24 -29 0 -10 -18 -31 -42 -48 -39 -26 -50 -29
-124 -28 -63 1 -89 5 -115 21 -19 12 -53 24 -77 28 -24 4 -48 15 -55 26 -8 10
-29 22 -48 25 -19 4 -42 13 -51 21 -18 16 -64 43 -116 68 -18 8 -35 22 -38 30
-6 16 -62 38 -75 29 -13 -8 -11 -30 5 -43 8 -7 17 -27 20 -46 4 -19 15 -39 25
-45 11 -5 22 -26 26 -47 3 -21 17 -60 30 -88 87 -185 103 -316 47 -373 -9 -10
-25 -30 -35 -45 -9 -14 -28 -29 -41 -33 -38 -9 -134 15 -146 36 -6 11 -27 21
-52 25 -24 4 -54 16 -67 26 -31 25 -94 26 -89 2 2 -9 18 -21 37 -25 20 -6 35
-17 38 -29 4 -12 17 -22 35 -26 16 -3 33 -14 38 -24 6 -10 21 -24 34 -31 112
-62 141 -110 92 -155 -16 -15 -26 -34 -26 -53 0 -16 -5 -32 -11 -36 -14 -8
-162 -28 -209 -27 -107 1 -486 35 -522 47 -24 7 -86 19 -138 26 -52 6 -115 18
-140 26 -25 7 -76 16 -115 20 -43 4 -87 16 -115 30 -27 15 -62 24 -90 24 -25
0 -63 5 -85 11 -73 19 -95 22 -95 10 0 -6 9 -11 20 -11 11 0 30 -12 42 -26 13
-14 59 -43 104 -64 45 -21 84 -46 87 -54 4 -9 16 -16 27 -16 29 0 60 -18 60
-35 0 -8 17 -19 41 -25 23 -7 65 -29 93 -49 28 -21 67 -43 87 -50 22 -7 39
-20 42 -31 3 -12 14 -20 26 -20 12 0 36 -13 54 -30 70 -64 123 -106 150 -118
16 -7 27 -19 27 -31 0 -14 18 -31 57 -53 41 -25 63 -46 80 -78 13 -25 30 -48
38 -53 9 -4 22 -22 30 -40 9 -18 22 -44 30 -58 14 -25 13 -32 -14 -88 -16 -34
-40 -72 -53 -84 -12 -12 -32 -35 -44 -51 -16 -22 -32 -30 -72 -37 -28 -4 -64
-17 -79 -27 -15 -11 -50 -23 -76 -27 -38 -5 -50 -11 -57 -30 -7 -19 -18 -24
-52 -27 -24 -2 -43 -7 -43 -13 0 -18 67 -17 114 3 34 15 82 22 182 27 163 8
183 1 228 -76 l29 -51 -19 -42 c-10 -22 -19 -56 -19 -73 0 -20 -9 -43 -25 -60
-30 -33 -75 -93 -113 -148 -15 -23 -51 -64 -79 -92 -29 -28 -53 -56 -53 -62 0
-6 -4 -11 -9 -11 -6 0 -32 -22 -59 -50 -27 -27 -55 -50 -61 -50 -6 0 -16 -11
-20 -23 -5 -13 -23 -29 -39 -36 -16 -7 -34 -23 -40 -36 -6 -13 -21 -26 -33
-30 -17 -6 -19 -9 -8 -16 23 -14 57 -10 96 11 21 11 44 20 52 20 7 0 29 9 47
20 18 12 59 25 91 30 32 5 70 19 85 30 19 14 55 23 125 30 54 6 106 11 116 10
44 -3 95 -3 127 -1 47 2 215 -15 229 -23 6 -4 11 -14 11 -22 0 -8 13 -20 29
-25 22 -8 32 -19 36 -42 4 -18 16 -42 27 -54 15 -16 18 -29 13 -51 -4 -20 -1
-41 9 -60 13 -25 14 -51 5 -183 -7 -99 -16 -164 -26 -183 -8 -16 -19 -61 -24
-100 -6 -47 -17 -81 -31 -101 -29 -39 -32 -118 -5 -123 11 -2 27 8 40 25 25
32 126 132 217 213 33 30 69 63 78 72 10 11 31 18 55 18 32 0 40 4 50 28 25
57 48 82 77 82 43 0 81 18 87 40 8 31 87 63 166 68 53 3 70 8 78 23 12 23 57
25 65 4 3 -8 23 -19 44 -25 22 -6 51 -25 69 -45 29 -33 31 -41 31 -113 0 -47
5 -85 13 -95 11 -16 15 -16 47 8 18 14 44 25 56 25 15 0 28 10 36 27 16 33 67
49 111 34 16 -6 43 -11 58 -11 16 0 29 -5 29 -10 0 -6 11 -22 25 -36 36 -36
47 -62 40 -94 -5 -22 -1 -33 15 -47 35 -29 80 -136 80 -188 0 -25 6 -61 14
-80 8 -18 12 -43 9 -54 -3 -11 2 -30 11 -43 10 -14 16 -44 16 -78 1 -30 5 -89
10 -130 11 -86 37 -393 38 -430 0 -36 21 -110 32 -110 11 0 17 34 26 133 5 59
11 81 25 91 13 8 21 31 25 72 4 32 18 82 31 109 13 28 27 73 30 100 3 28 14
76 24 107 11 32 19 70 19 86 0 16 9 37 20 47 11 10 25 36 31 57 6 25 19 43 34
50 21 9 23 17 23 75 0 43 5 70 15 81 8 9 18 28 22 42 11 37 22 47 61 55 42 7
53 29 29 55 -16 18 -16 20 4 46 12 15 21 38 21 52 0 15 15 39 41 66 41 40 43
41 111 41 79 0 92 -10 82 -65 -11 -67 -10 -75 13 -78 12 -2 26 -9 32 -16 6 -7
16 -82 21 -165 8 -129 13 -159 35 -205 21 -44 25 -68 25 -142 0 -82 10 -128
23 -108 7 12 10 232 8 490 -3 260 2 277 75 288 108 16 134 6 134 -54 0 -56 7
-67 56 -90 36 -18 46 -29 56 -63 6 -23 20 -51 30 -63 10 -11 18 -31 18 -43 0
-13 11 -34 24 -46 12 -12 26 -39 30 -61 4 -21 17 -46 28 -55 15 -12 22 -33 27
-82 4 -40 14 -73 24 -85 23 -26 64 -143 72 -207 4 -30 15 -64 25 -75 10 -11
21 -46 25 -77 4 -31 9 -62 12 -70 6 -16 39 -17 49 -1 5 7 8 75 9 150 0 95 4
141 13 150 15 15 15 33 0 58 -9 14 -9 24 -1 42 7 13 15 84 18 158 7 144 17
207 40 255 8 17 17 46 20 66 5 31 10 37 45 48 39 11 39 12 46 72 8 68 19 79
86 79 24 0 56 7 72 15 26 14 31 14 47 -1 11 -9 41 -19 69 -22 27 -2 50 -8 50
-13 0 -4 13 -28 30 -52 21 -32 39 -46 61 -51 43 -8 57 -22 65 -62 6 -30 52
-84 73 -84 4 0 13 -16 20 -35 14 -40 38 -46 45 -12 3 12 7 71 9 131 4 82 9
113 20 121 8 6 22 28 31 49 13 32 19 36 38 31 35 -11 40 -11 45 2 2 6 -5 14
-16 18 -29 9 -26 39 4 59 14 9 25 23 25 31 0 18 35 29 57 16 20 -10 75 8 87
28 15 23 53 12 66 -19 15 -36 17 -36 45 -10 21 20 25 20 78 6 30 -8 65 -12 76
-9 13 3 31 -4 52 -21 17 -14 41 -26 54 -26 13 0 30 -7 37 -16 36 -45 72 -74
93 -74 37 0 75 -18 75 -35 0 -9 12 -20 26 -26 15 -5 40 -21 56 -34 16 -14 35
-25 42 -25 6 0 19 -9 29 -20 9 -11 24 -20 32 -20 9 0 20 -11 25 -25 5 -14 16
-25 25 -25 8 0 20 -11 27 -25 6 -13 24 -29 40 -34 16 -6 60 -42 98 -81 53 -55
74 -71 92 -68 18 2 22 9 20 27 -1 14 -11 31 -22 38 -11 8 -27 29 -36 46 -8 18
-22 45 -31 61 -9 17 -18 49 -21 73 -3 29 -11 47 -23 54 -11 5 -19 18 -19 29 0
11 -11 27 -24 35 -27 18 -39 66 -38 144 1 25 -5 52 -12 61 -23 25 -29 75 -11
90 23 19 18 49 -10 62 -31 14 -29 39 3 53 27 12 28 25 2 75 l-20 39 30 31 c19
20 30 41 30 59 0 32 18 41 84 41 45 0 104 -33 116 -65 6 -17 19 -24 51 -28 24
-3 45 -10 46 -14 7 -21 80 -91 101 -98 35 -10 102 -57 102 -71 0 -7 13 -17 29
-22 16 -6 34 -20 41 -31 6 -12 20 -21 31 -21 11 0 22 -6 25 -14 6 -16 62 -39
75 -31 14 9 -2 35 -22 35 -11 0 -23 10 -28 23 -5 12 -17 30 -28 39 -10 9 -34
33 -53 53 -19 19 -38 35 -41 35 -13 0 -181 174 -205 211 -13 21 -31 39 -39 39
-23 0 -35 34 -35 104 0 51 -4 67 -17 74 -15 9 -15 12 -1 34 9 14 20 41 23 61
13 66 124 127 204 111 25 -5 34 -1 55 22 23 28 25 28 43 11 26 -23 30 -22 83
14 53 36 73 34 80 -6 7 -39 33 -39 40 0 l5 30 93 3 c57 2 100 -2 114 -9 12 -7
70 -14 128 -16 80 -4 109 -9 124 -21 11 -11 40 -18 80 -21 189 -11 232 -3 167
31 -18 9 -40 23 -50 32 -10 9 -22 16 -28 16 -6 0 -26 11 -46 25 -20 13 -55 30
-78 36 -22 7 -43 19 -46 26 -3 8 -20 21 -37 30 -17 9 -51 33 -75 54 -24 22
-54 39 -67 39 -23 0 -54 24 -54 41 0 6 -12 15 -27 22 -16 7 -40 20 -54 30 -40
27 -149 133 -149 144 0 5 -11 15 -25 21 -14 6 -25 16 -25 22 0 5 -21 30 -46
56 l-46 46 0 81 c0 120 0 124 19 142 13 13 27 16 69 10 44 -5 54 -3 62 12 8
12 24 19 54 20 197 8 576 32 591 38 9 4 17 11 17 15 0 11 -65 18 -309 30 -112
6 -207 13 -210 15 -4 2 -45 8 -91 15 -113 14 -131 23 -171 78 -32 45 -33 50
-31 135 1 84 2 88 34 121 18 18 45 36 61 40 23 5 27 11 27 44 0 34 5 41 60 81
33 24 60 49 60 57 0 7 10 19 23 25 12 7 27 18 32 24 6 7 21 15 35 18 14 4 39
24 55 47 17 22 49 49 72 60 23 12 47 28 53 36 7 7 18 14 24 14 7 0 22 11 34
25 13 14 35 30 50 36 26 10 27 11 7 25 -23 18 -79 13 -104 -10 -9 -7 -46 -19
-83 -24 -36 -6 -78 -18 -93 -28 -60 -39 -397 -62 -515 -35 -75 18 -85 24 -99
70 -10 34 -16 41 -46 47 -36 6 -39 12 -50 84 -4 25 -16 55 -27 67 -19 21 -19
22 -2 51 16 28 16 31 1 47 -22 22 -23 103 -2 111 20 8 19 30 -1 38 -14 5 -15
15 -10 53 3 25 10 51 15 57 5 6 14 65 20 131 7 66 18 138 26 160 27 77 39 164
27 190 -15 32 -28 32 -36 0 -4 -14 -17 -30 -30 -35 -12 -4 -28 -22 -35 -38 -7
-16 -23 -34 -37 -40 -13 -7 -24 -17 -24 -23 0 -16 -112 -129 -128 -129 -7 0
-18 -11 -24 -25 -6 -14 -15 -25 -20 -25 -4 0 -25 -16 -47 -35 -21 -19 -46 -35
-55 -35 -9 0 -19 -7 -22 -15 -8 -20 -90 -75 -112 -75 -21 0 -34 -10 -48 -35
-6 -11 -24 -23 -40 -26 -16 -4 -46 -16 -66 -27 -53 -28 -153 -37 -199 -18 -27
11 -38 23 -42 46 -8 36 6 113 27 155 8 17 19 81 24 143 6 62 16 119 22 127 7
8 12 56 13 117 2 85 -1 103 -13 103 -11 0 -17 -17 -23 -60 -5 -41 -14 -65 -28
-77 -13 -11 -22 -34 -25 -70 -3 -29 -15 -65 -25 -80 -10 -15 -24 -51 -30 -80
-6 -29 -20 -62 -30 -74 -12 -13 -19 -35 -19 -63 0 -35 -6 -47 -32 -72 -27 -25
-39 -29 -67 -25 -45 7 -78 30 -103 72 -11 19 -26 34 -34 34 -7 0 -17 12 -20
28 -4 15 -11 32 -16 39 -5 7 -7 25 -3 42 5 22 2 32 -12 43 -29 22 -59 71 -66
108 -4 20 -17 53 -28 75 -16 30 -23 64 -27 133 -4 77 -8 96 -23 105 -23 14
-24 40 -4 57 14 12 13 15 -5 35 -16 17 -22 44 -31 136 -6 63 -14 132 -19 154
-5 22 -10 81 -11 130 -1 50 -4 103 -8 120 -6 31 -38 47 -45 23z m-71 -577 c3
-5 10 -33 15 -62 6 -29 17 -60 25 -69 9 -10 18 -47 22 -86 3 -39 17 -91 30
-119 12 -27 23 -56 23 -63 0 -7 8 -32 19 -55 10 -23 22 -56 25 -74 4 -17 18
-43 32 -58 13 -14 24 -34 24 -44 0 -16 11 -31 80 -109 11 -12 20 -25 20 -29 0
-10 77 -83 88 -83 6 0 16 -8 21 -19 6 -10 25 -21 43 -25 17 -3 42 -15 54 -27
52 -48 416 -49 468 0 12 11 37 24 56 27 19 4 40 12 45 19 6 6 22 15 37 18 15
4 35 16 45 26 10 10 34 26 54 34 20 8 47 25 61 38 25 23 45 39 93 74 32 23 53
18 59 -12 2 -16 5 -116 4 -224 0 -136 3 -207 12 -232 12 -30 11 -39 -3 -61
-18 -27 -20 -28 -226 -46 -77 -6 -131 -16 -144 -25 -12 -8 -33 -15 -48 -15
-32 0 -44 -14 -53 -61 -3 -19 -15 -53 -26 -74 -11 -22 -20 -53 -20 -71 0 -86
-29 -124 -85 -110 -21 5 -65 92 -65 128 0 10 -11 24 -23 33 -13 8 -29 27 -35
40 -7 14 -29 33 -49 42 -21 10 -48 26 -60 37 -29 25 -177 39 -328 30 -91 -5
-116 -10 -145 -29 -19 -13 -56 -26 -82 -29 -25 -4 -52 -13 -58 -21 -7 -8 -27
-17 -46 -21 -19 -3 -39 -14 -44 -23 -5 -10 -27 -23 -49 -30 -22 -6 -46 -19
-53 -29 -7 -9 -32 -30 -56 -46 -24 -17 -50 -39 -58 -50 -14 -20 -15 -20 -48
-2 -18 10 -39 29 -46 42 -7 13 -20 26 -29 29 -9 3 -21 15 -26 27 -6 13 -19 25
-30 27 -11 2 -32 14 -48 27 -15 13 -48 26 -75 30 -26 3 -53 11 -60 17 -24 19
-177 21 -225 4 -23 -9 -71 -19 -107 -23 -36 -3 -78 -13 -95 -22 -16 -8 -55
-20 -85 -27 -74 -16 -100 -52 -100 -139 0 -35 -8 -82 -19 -111 -10 -27 -22
-82 -26 -122 -4 -46 -12 -73 -21 -77 -20 -8 -25 6 -33 92 -5 50 -16 89 -30
112 -11 19 -21 48 -21 64 0 89 -148 248 -252 272 -18 4 -100 6 -182 6 -126 -2
-153 -5 -180 -21 -17 -10 -48 -24 -69 -31 -21 -7 -41 -18 -44 -26 -3 -8 -22
-19 -43 -25 -23 -7 -42 -21 -49 -35 -6 -13 -16 -24 -24 -24 -15 0 -127 -114
-127 -130 0 -6 -11 -15 -25 -20 -14 -5 -25 -14 -25 -19 0 -18 -62 -81 -79 -80
-35 1 -68 60 -79 142 -6 44 -17 86 -26 96 -9 10 -16 24 -16 33 0 8 -16 46 -36
85 -48 95 -137 173 -238 206 -22 8 -44 21 -50 30 -12 19 6 124 36 210 17 46
20 72 15 133 -3 41 -10 81 -15 87 -5 7 -12 29 -16 49 -7 36 -6 37 28 44 30 5
44 1 83 -25 25 -17 52 -31 58 -31 7 0 18 -6 24 -14 6 -8 31 -17 54 -20 24 -4
58 -17 77 -29 33 -21 46 -22 217 -22 174 0 182 1 205 22 13 13 39 26 58 30 19
3 46 14 60 23 14 9 50 34 82 55 31 20 58 46 61 56 3 10 12 19 20 19 8 0 24 16
36 35 11 19 25 35 30 35 6 0 18 14 26 31 9 16 25 39 36 50 10 10 19 25 19 33
0 8 6 16 14 19 8 3 20 25 28 48 12 36 20 45 47 52 26 6 37 4 52 -9 10 -9 19
-23 19 -29 0 -7 7 -18 15 -25 8 -7 17 -28 21 -47 4 -23 13 -37 26 -41 11 -3
21 -17 25 -34 3 -16 16 -37 28 -46 12 -10 25 -27 29 -39 4 -11 15 -28 26 -38
11 -10 20 -24 20 -32 0 -7 4 -13 9 -13 5 0 36 -24 68 -54 32 -30 69 -64 82
-76 13 -12 38 -27 55 -33 17 -6 37 -19 44 -29 7 -10 23 -18 35 -18 12 0 51 -9
85 -20 81 -25 134 -25 207 0 32 11 69 20 81 20 13 0 31 8 41 19 10 10 36 24
58 31 22 7 52 25 66 39 34 35 115 103 134 113 8 5 15 14 15 19 0 9 25 38 110
128 14 14 33 42 42 61 10 19 32 53 48 75 17 22 39 59 50 83 11 23 25 42 30 42
5 0 14 18 20 40 6 22 19 44 29 50 10 5 21 25 25 43 6 34 61 117 76 117 5 0 11
-4 15 -9z m-3471 -1267 c19 -19 19 -14 1 -58 -8 -20 -22 -36 -31 -36 -27 0
-51 19 -58 44 -11 44 3 58 61 65 6 0 19 -6 27 -15z m574 -12 c10 -12 32 -27
50 -33 17 -6 32 -17 32 -24 0 -8 13 -23 29 -34 16 -12 32 -35 36 -51 3 -16 15
-32 24 -35 13 -4 20 -20 25 -58 4 -28 14 -60 23 -69 8 -9 19 -50 24 -90 5 -40
15 -91 23 -113 19 -52 21 -178 3 -194 -8 -6 -19 -30 -26 -53 -7 -24 -19 -50
-26 -58 -7 -8 -16 -31 -20 -50 -4 -19 -16 -45 -27 -56 -11 -13 -23 -45 -27
-75 -4 -30 -17 -72 -28 -94 -13 -25 -25 -79 -33 -145 -6 -57 -15 -109 -18
-115 -3 -5 -9 -64 -13 -130 -6 -111 -9 -121 -32 -140 -13 -11 -27 -32 -31 -46
-3 -15 -17 -34 -31 -43 -14 -9 -25 -25 -25 -36 0 -10 -9 -22 -20 -25 -11 -3
-25 -15 -31 -27 -6 -11 -24 -32 -41 -46 -17 -15 -42 -39 -57 -54 -14 -16 -31
-28 -37 -28 -6 0 -25 -13 -42 -30 -18 -17 -41 -30 -51 -30 -11 0 -24 -7 -29
-16 -8 -14 -74 -38 -187 -66 -42 -10 -141 -3 -159 11 -6 5 -25 12 -42 15 -17
4 -42 18 -54 32 -13 13 -29 24 -36 24 -8 0 -20 14 -29 30 -9 17 -22 30 -30 30
-7 0 -17 10 -21 23 -3 12 -12 29 -19 37 -34 39 -67 157 -80 288 -8 73 -16 141
-20 150 -3 10 2 83 10 161 8 79 15 168 15 198 0 37 6 66 19 87 10 17 21 56 24
88 3 31 12 67 21 80 9 13 20 49 26 79 6 30 19 66 30 81 11 15 23 42 27 60 3
18 17 47 30 66 12 19 23 40 23 47 0 6 9 20 20 30 11 10 20 24 20 32 0 17 51
90 108 153 23 26 42 52 42 59 0 6 11 17 25 23 13 6 27 19 30 29 3 10 16 21 28
25 12 4 28 15 35 25 7 11 19 19 27 19 8 0 19 9 25 20 6 12 29 25 56 31 24 6
49 20 54 30 13 23 51 27 213 25 120 -2 130 -3 145 -24z m4424 -40 c6 -6 4 -21
-5 -38 -8 -16 -20 -48 -26 -71 -7 -24 -16 -43 -20 -43 -11 0 -28 -44 -35 -90
-3 -20 -15 -43 -25 -52 -10 -9 -22 -36 -26 -60 -4 -23 -13 -53 -21 -65 -7 -11
-19 -43 -25 -70 -6 -26 -20 -61 -29 -78 -10 -16 -21 -52 -25 -80 -4 -27 -15
-59 -25 -70 -10 -11 -23 -46 -29 -78 -6 -32 -17 -64 -25 -72 -8 -8 -19 -38
-26 -67 -6 -29 -17 -62 -25 -74 -7 -11 -16 -42 -20 -67 -4 -26 -16 -58 -26
-71 -10 -12 -23 -52 -28 -87 -7 -41 -17 -68 -28 -76 -10 -7 -25 -19 -33 -27
-11 -10 -53 -16 -147 -21 l-133 -8 -10 29 c-13 34 -4 102 17 126 8 9 19 47 24
85 6 37 15 86 20 108 6 22 19 76 28 120 10 44 23 91 30 104 8 13 17 58 22 100
6 46 17 86 28 102 12 16 23 58 30 114 6 48 17 98 25 110 8 12 18 44 21 71 4
27 16 76 25 109 10 33 21 77 24 97 6 35 9 37 54 44 26 3 67 15 92 26 70 31
327 45 352 20z m-960 -71 c26 -11 51 -21 57 -21 5 0 18 -11 28 -23 10 -13 28
-29 40 -35 15 -8 25 -28 33 -66 6 -30 20 -62 30 -71 24 -22 28 -119 7 -150 -8
-11 -22 -41 -31 -66 l-18 -47 -61 -7 c-33 -3 -72 -12 -86 -19 -14 -7 -61 -21
-104 -31 -74 -17 -78 -17 -97 0 -14 13 -20 31 -20 64 0 29 -9 61 -23 86 -19
34 -28 40 -59 43 -63 5 -117 -33 -163 -117 -30 -53 -30 -56 -5 -104 11 -20 20
-44 20 -52 0 -8 4 -15 9 -15 4 0 30 -17 57 -39 27 -21 64 -46 83 -56 53 -27
153 -110 181 -150 14 -20 35 -48 46 -63 12 -15 25 -47 29 -72 4 -25 17 -55 29
-68 19 -22 21 -34 21 -162 l0 -138 -40 -58 c-22 -32 -50 -69 -61 -81 -25 -27
-40 -62 -48 -114 -6 -36 -18 -49 -140 -154 -16 -14 -35 -25 -44 -25 -8 0 -27
-11 -44 -25 -16 -14 -42 -27 -56 -30 -15 -3 -57 -15 -93 -26 -96 -29 -297 -30
-354 -2 -22 11 -55 24 -73 28 -18 4 -40 18 -48 31 -9 13 -23 24 -32 24 -24 0
-119 105 -127 140 -5 22 -1 39 14 64 12 18 21 40 21 48 0 8 11 27 25 42 14 15
25 35 25 46 0 10 11 32 25 48 14 16 30 47 37 68 10 29 20 40 43 46 23 6 33 4
42 -10 15 -20 19 -24 59 -57 18 -14 38 -25 45 -25 7 0 23 -10 36 -22 29 -28
119 -40 197 -28 32 5 60 11 61 12 36 37 65 86 65 113 0 49 -55 150 -96 175
-18 12 -34 25 -34 30 0 7 -32 30 -93 66 -10 6 -25 21 -32 32 -8 11 -25 22 -39
26 -13 3 -31 17 -40 31 -9 14 -22 25 -28 25 -19 0 -115 108 -138 155 -11 24
-28 49 -36 55 -10 9 -14 37 -14 111 0 85 3 104 25 145 14 26 25 55 25 65 0 11
9 24 20 31 11 7 20 18 20 25 0 16 110 133 125 133 7 0 20 11 29 25 9 14 23 25
31 25 8 0 19 9 25 20 6 11 20 20 31 20 11 0 31 11 45 25 13 13 43 29 67 36 23
6 51 19 62 29 11 9 40 20 64 24 25 4 59 13 75 21 45 20 77 24 206 21 92 -3
124 -7 162 -25z m-2311 -21 c37 0 53 -5 67 -20 9 -11 34 -25 54 -31 27 -7 38
-15 38 -29 0 -11 12 -25 27 -32 16 -8 30 -25 35 -43 4 -16 15 -35 24 -42 28
-20 57 -182 61 -344 4 -118 1 -166 -16 -253 -12 -59 -21 -120 -21 -137 0 -16
-9 -42 -20 -57 -11 -15 -24 -51 -29 -80 -4 -29 -15 -60 -24 -70 -9 -10 -22
-34 -28 -53 -16 -50 -60 -141 -79 -164 -10 -11 -20 -32 -24 -47 -3 -15 -15
-30 -26 -33 -11 -3 -20 -13 -20 -22 0 -9 -25 -44 -55 -78 -30 -35 -55 -68 -55
-74 0 -6 -13 -17 -30 -26 -16 -9 -30 -21 -30 -28 0 -6 -12 -20 -28 -30 -15 -9
-43 -27 -62 -39 -19 -12 -41 -30 -48 -40 -7 -10 -22 -18 -32 -18 -11 0 -27
-11 -35 -24 -10 -15 -30 -27 -53 -31 -20 -4 -54 -16 -77 -28 -34 -18 -58 -21
-162 -21 -112 -1 -123 1 -145 22 -14 12 -33 22 -45 22 -24 0 -89 70 -111 120
-9 19 -25 45 -35 57 -26 30 -51 228 -43 343 17 241 24 289 44 314 12 16 22 49
26 88 4 35 14 73 21 85 8 11 20 43 26 70 7 26 20 56 30 66 11 10 19 29 19 42
0 14 9 34 21 46 11 11 27 39 35 62 8 23 23 51 33 62 10 11 27 35 37 54 36 65
38 67 134 167 22 23 40 46 40 52 0 6 9 14 20 17 11 4 28 17 36 31 9 13 22 24
30 24 8 0 19 9 26 20 7 11 18 20 24 20 6 0 28 14 49 30 21 17 46 30 56 30 10
0 35 10 55 22 35 21 165 41 202 31 8 -1 36 -3 63 -3z m3457 -25 c33 -22 53
-26 153 -31 86 -5 117 -10 127 -22 18 -23 15 -53 -8 -77 -42 -43 -130 -158
-130 -171 0 -7 -9 -19 -19 -26 -11 -8 -25 -36 -32 -63 -7 -27 -21 -56 -30 -65
-26 -21 -42 -168 -34 -300 8 -124 19 -174 46 -201 10 -10 19 -32 19 -49 0 -16
6 -33 14 -37 19 -11 63 -71 77 -106 6 -15 20 -32 31 -38 10 -6 23 -21 28 -35
5 -13 21 -29 35 -34 14 -5 25 -16 25 -24 0 -8 23 -30 50 -50 28 -20 50 -40 50
-45 0 -6 12 -16 27 -23 32 -16 48 -40 40 -62 -5 -12 -19 -16 -54 -16 -26 0
-81 -9 -122 -20 -41 -11 -96 -20 -123 -20 -27 0 -65 -7 -86 -16 -20 -8 -58
-19 -83 -24 -26 -5 -64 -21 -84 -35 -21 -14 -49 -25 -62 -25 -13 0 -34 -11
-47 -25 -13 -14 -31 -25 -40 -25 -9 0 -26 -11 -38 -25 -12 -14 -28 -25 -35
-25 -7 0 -13 -4 -13 -10 0 -5 -25 -34 -55 -65 -30 -30 -55 -60 -55 -66 0 -7
-11 -22 -25 -35 -14 -13 -25 -34 -25 -47 0 -14 -7 -30 -15 -37 -8 -7 -22 -38
-31 -69 -8 -31 -22 -68 -29 -83 -21 -37 -21 -325 0 -394 8 -27 15 -64 15 -83
0 -33 0 -33 -37 -26 -21 4 -43 15 -51 26 -7 10 -19 19 -26 19 -7 0 -24 9 -38
19 -13 11 -37 23 -52 27 -14 3 -31 14 -36 24 -5 10 -31 23 -59 30 -27 6 -57
20 -66 30 -10 11 -38 21 -73 25 -31 4 -70 14 -87 23 -46 24 -209 20 -271 -7
-25 -12 -52 -21 -59 -21 -6 0 -22 -11 -34 -24 -13 -13 -34 -27 -47 -30 -13 -4
-24 -13 -24 -21 0 -7 -10 -21 -21 -29 -23 -15 -56 -66 -83 -123 -16 -35 -18
-36 -64 -27 -18 4 -34 15 -41 30 -6 13 -19 24 -29 24 -11 0 -27 8 -36 19 -9
10 -53 31 -98 46 -69 24 -90 27 -146 21 -36 -4 -88 -18 -117 -31 -60 -29 -153
-118 -176 -170 -9 -20 -23 -41 -33 -48 -9 -7 -20 -37 -26 -71 -5 -32 -16 -66
-24 -75 -8 -9 -19 -36 -25 -60 -15 -68 -27 -72 -66 -26 -18 21 -36 53 -39 71
-4 17 -15 39 -25 48 -11 10 -22 29 -26 43 -3 14 -25 53 -48 87 -23 34 -46 69
-52 78 -32 50 -78 102 -116 133 -24 19 -55 45 -69 58 -14 13 -40 27 -58 30
-19 4 -45 16 -59 27 -21 17 -41 20 -112 20 -74 0 -92 -4 -126 -25 -22 -13 -48
-25 -58 -25 -9 0 -31 -12 -47 -27 -17 -16 -50 -44 -74 -63 -24 -19 -54 -51
-67 -70 -13 -19 -39 -54 -56 -78 -18 -24 -33 -48 -33 -53 0 -5 -9 -18 -19 -28
-11 -11 -24 -36 -30 -57 -6 -20 -19 -46 -29 -58 -11 -12 -25 -42 -32 -69 -7
-26 -17 -50 -21 -53 -5 -3 -13 -24 -20 -47 -6 -23 -17 -49 -24 -57 -7 -8 -19
-34 -26 -57 -14 -51 -32 -54 -58 -13 -18 30 -23 47 -56 165 -43 159 -54 187
-74 201 -12 8 -21 26 -21 39 0 13 -10 31 -21 39 -12 8 -30 28 -40 45 -10 17
-30 33 -43 37 -14 3 -32 17 -41 30 -15 23 -20 24 -134 24 l-119 0 -31 35 c-17
20 -31 40 -31 45 0 6 -6 10 -14 10 -8 0 -24 14 -36 30 -15 21 -30 30 -49 30
-15 0 -45 9 -66 21 -51 26 -145 30 -172 8 -10 -9 -48 -21 -85 -27 -42 -7 -74
-18 -87 -31 -11 -11 -36 -23 -56 -27 -19 -3 -38 -10 -41 -15 -3 -5 -24 -19
-47 -31 -23 -11 -46 -27 -52 -34 -5 -7 -19 -14 -30 -16 -11 -2 -24 -13 -30
-25 -11 -27 -84 -58 -99 -43 -6 6 -12 60 -13 120 -1 73 -6 120 -17 142 -8 18
-20 62 -26 98 -7 36 -16 71 -22 77 -19 23 19 26 74 6 43 -14 81 -18 193 -17
129 1 161 6 205 33 8 5 41 22 74 37 60 27 225 158 252 199 8 13 29 29 46 36
28 12 33 11 42 -6 6 -10 20 -28 32 -39 12 -12 25 -32 29 -45 8 -26 101 -121
118 -121 6 0 19 -8 29 -17 18 -16 48 -27 153 -54 22 -6 67 -8 100 -4 59 6 190
41 210 55 6 4 28 13 50 20 22 7 55 26 73 41 18 16 39 29 46 29 8 0 21 11 30
25 9 14 22 25 30 25 7 0 32 20 55 45 23 25 46 45 51 45 5 0 16 14 25 30 9 17
21 30 27 30 6 0 19 7 29 16 40 36 49 -12 25 -131 -8 -38 -18 -104 -21 -145 -9
-95 0 -106 78 -96 28 4 72 14 96 22 24 8 81 19 125 25 45 5 99 16 121 24 22 7
74 15 115 18 41 3 83 8 92 12 15 6 28 47 43 136 3 21 12 50 19 65 8 16 17 74
21 129 7 102 33 187 63 213 9 6 33 12 53 12 26 0 47 8 68 26 17 14 49 28 71
31 38 5 40 4 40 -21 0 -15 -9 -39 -19 -54 -11 -15 -24 -58 -31 -96 -6 -38 -18
-82 -26 -97 -8 -15 -14 -49 -14 -75 0 -43 16 -75 58 -116 60 -60 113 -108 121
-108 5 0 16 -10 24 -23 8 -13 33 -29 55 -35 22 -7 45 -19 52 -27 7 -8 21 -15
32 -15 11 0 45 -7 75 -16 88 -26 338 -2 419 40 16 8 41 18 56 21 14 3 39 15
55 28 15 13 45 28 66 34 37 11 38 11 75 -34 20 -25 43 -51 50 -57 7 -6 26 -23
42 -38 20 -18 45 -29 77 -33 26 -3 61 -12 76 -20 33 -17 61 -19 87 -5 10 5 53
15 94 21 76 11 98 23 178 91 28 25 98 155 98 184 0 10 9 27 20 39 13 14 23 42
26 76 4 32 16 70 31 92 22 35 25 50 25 148 1 106 1 109 -26 134 -27 25 -28 30
-24 100 3 60 7 78 25 94 13 13 24 39 28 73 4 29 16 69 26 88 11 19 19 44 19
55 0 11 11 40 24 65 13 25 27 69 31 98 4 29 13 56 20 59 17 6 35 57 35 98 0
18 6 38 14 44 7 6 21 37 31 69 10 31 24 64 31 73 8 8 14 25 14 37 0 29 18 73
36 86 8 6 17 29 21 51 3 22 19 64 35 94 15 30 28 60 28 68 0 7 6 24 14 36 8
12 17 38 21 57 4 19 17 49 30 65 12 17 25 50 28 74 9 68 49 80 115 36z m-2300
-31 c12 -4 22 -13 22 -20 0 -8 12 -20 28 -27 15 -6 33 -20 40 -29 7 -10 20
-18 27 -18 8 0 17 -11 21 -25 3 -14 15 -30 25 -36 24 -12 26 -80 4 -99 -8 -7
-20 -31 -27 -54 -6 -22 -20 -48 -31 -57 -17 -14 -21 -32 -25 -122 -6 -139 3
-214 28 -222 38 -12 37 -142 -1 -152 -11 -3 -22 -16 -25 -30 -4 -13 -18 -36
-33 -52 -14 -15 -33 -36 -42 -47 -34 -39 -85 -82 -107 -88 -12 -4 -26 -16 -32
-26 -5 -10 -24 -21 -42 -25 -18 -4 -40 -13 -49 -21 -8 -8 -44 -17 -80 -20
-112 -12 -122 -21 -134 -138 -4 -32 -15 -77 -24 -100 -10 -23 -21 -82 -25
-136 -9 -138 -22 -173 -76 -209 -38 -25 -59 -31 -135 -37 -49 -4 -119 -15
-154 -25 -70 -20 -78 -19 -91 17 -12 30 7 178 26 216 8 15 19 65 25 110 6 46
19 112 30 147 10 35 19 82 19 105 0 23 9 60 20 81 13 26 24 75 30 139 7 65 16
109 29 130 13 21 22 65 29 141 6 61 17 128 25 150 8 22 17 72 21 110 4 39 16
102 26 140 10 39 21 107 24 152 4 45 9 89 12 97 3 8 30 20 61 27 30 7 60 21
67 31 10 14 35 20 112 27 99 10 339 6 382 -5z m-3635 -620 c213 -6 241 -9 263
-26 30 -24 30 -52 3 -98 -16 -26 -24 -61 -30 -139 -4 -57 -11 -116 -14 -130
-3 -14 -12 -77 -20 -140 -15 -116 -27 -149 -45 -121 -5 8 -12 34 -16 57 -3 23
-17 57 -30 74 -13 18 -24 40 -24 49 0 9 -9 25 -21 36 -12 10 -30 36 -40 56
-10 20 -34 52 -52 70 -19 18 -37 41 -40 51 -4 11 -16 21 -27 24 -11 3 -22 14
-25 24 -4 10 -26 33 -51 51 -24 17 -44 37 -44 45 0 7 -11 15 -24 19 -14 3 -32
16 -40 29 -9 13 -25 26 -36 30 -47 15 -7 59 45 50 17 -2 137 -8 268 -11z
m4877 -274 c0 -15 -37 -40 -60 -40 -10 0 -14 53 -5 62 3 2 18 3 35 0 20 -3 30
-10 30 -22z m199 -474 c48 -9 80 -21 90 -33 9 -11 28 -24 43 -31 16 -7 34 -26
43 -48 8 -20 22 -42 31 -49 12 -8 16 -28 16 -76 -1 -70 -11 -107 -36 -128 -9
-7 -16 -21 -16 -30 -1 -15 -66 -65 -133 -101 -42 -23 -130 -33 -207 -24 -53 6
-68 13 -116 52 -31 25 -57 56 -61 71 -3 14 -10 32 -16 39 -5 7 -12 47 -15 88
-4 66 -2 79 17 105 12 16 24 42 27 58 5 21 15 33 35 40 16 5 29 17 29 25 0 19
85 45 180 54 8 1 48 -4 89 -12z m-4849 -23 c0 -62 22 -188 34 -202 9 -9 20
-41 26 -71 11 -54 54 -181 71 -210 5 -8 20 -39 33 -67 14 -29 30 -53 35 -53 6
0 11 -20 11 -45 0 -39 -3 -45 -21 -45 -12 0 -36 9 -54 20 -44 27 -158 44 -300
45 l-120 0 -3 32 c-2 22 3 35 16 45 11 7 22 23 26 36 4 12 12 22 17 22 5 0 18
20 28 44 11 24 26 46 34 49 8 3 20 28 27 55 6 28 20 58 31 68 10 9 19 29 19
43 0 44 27 153 50 204 21 48 40 62 40 30z"/>
<path d="M2490 5485 c-7 -8 -31 -20 -54 -26 -22 -6 -49 -18 -59 -27 -48 -45
-97 -98 -97 -107 0 -6 -8 -15 -19 -22 -10 -6 -21 -27 -25 -46 -3 -19 -15 -42
-26 -52 -11 -10 -22 -34 -26 -54 -3 -20 -17 -71 -30 -115 -19 -62 -26 -111
-31 -230 -8 -191 -2 -233 40 -279 38 -41 75 -51 157 -42 55 6 63 11 117 64 89
89 100 103 108 139 4 18 15 37 25 42 12 7 21 27 26 58 4 26 15 63 25 82 25 51
44 307 30 423 -12 105 -32 150 -80 183 -41 28 -63 30 -81 9z m84 -548 c8 -13
8 -19 -1 -25 -16 -10 -33 -57 -33 -91 0 -16 -6 -34 -14 -40 -8 -7 -23 -31 -34
-55 -25 -52 -69 -106 -87 -106 -20 0 -25 28 -16 93 5 35 16 66 28 80 11 12 23
38 27 58 8 46 67 112 97 107 12 -2 27 -11 33 -21z"/>
<path d="M3654 5361 c-17 -5 -47 -20 -66 -34 -19 -15 -39 -27 -44 -27 -12 0
-74 -75 -74 -89 0 -6 -13 -25 -30 -43 -16 -17 -30 -39 -30 -48 0 -9 -9 -25
-20 -35 -10 -9 -27 -43 -36 -74 -9 -31 -20 -60 -24 -66 -4 -5 -11 -32 -15 -60
-4 -27 -16 -76 -26 -109 -24 -75 -27 -224 -4 -232 8 -3 17 -14 20 -24 8 -25
89 -70 106 -60 7 5 41 14 77 20 42 8 67 19 75 31 7 11 16 19 21 19 12 0 86 75
86 87 0 6 8 18 19 27 10 9 21 30 24 46 4 16 15 37 26 47 11 10 25 40 31 66 6
27 19 60 30 75 36 50 56 332 30 426 -11 40 -17 47 -49 56 -41 11 -81 11 -127
1z m56 -525 c0 -28 -5 -46 -14 -49 -8 -3 -17 -20 -21 -37 -4 -18 -18 -41 -31
-53 -13 -11 -24 -27 -24 -34 0 -7 -11 -18 -24 -24 -13 -6 -29 -22 -35 -35 -12
-28 -23 -30 -41 -9 -15 18 -6 78 16 100 9 8 20 31 26 51 5 21 17 38 28 41 10
3 23 18 29 33 9 26 49 56 79 59 8 1 12 -14 12 -43z"/>
<path d="M4801 5503 c-6 -21 -11 -66 -11 -100 0 -39 -8 -82 -20 -113 -11 -29
-25 -93 -31 -143 -17 -146 -18 -142 13 -145 22 -3 30 2 37 20 5 13 21 33 35
45 14 13 26 32 26 43 0 10 8 27 19 37 22 21 61 178 61 244 0 77 -44 149 -91
149 -24 0 -30 -6 -38 -37z"/>
<path d="M1470 5790 c0 -5 9 -10 20 -10 11 0 20 5 20 10 0 6 -9 10 -20 10 -11
0 -20 -4 -20 -10z"/>
</g>
</svg>
