<?xml version="1.0" standalone="no"?>
<!DOCTYPE svg PUBLIC "-//W3C//DTD SVG 20010904//EN"
 "http://www.w3.org/TR/2001/REC-SVG-20010904/DTD/svg10.dtd">
<svg version="1.0" xmlns="http://www.w3.org/2000/svg"
 width="900.000000pt" height="900.000000pt" viewBox="0 0 900.000000 900.000000"
 preserveAspectRatio="xMidYMid meet">
<metadata>
Created by potrace 1.10, written by Peter Selinger 2001-2011
</metadata>
<g transform="translate(0.000000,900.000000) scale(0.100000,-0.100000)"
fill="#000000" stroke="none">
<path d="M3058 8549 c-90 -46 -181 -173 -196 -273 -4 -27 -12 -51 -18 -53 -6
-2 -24 7 -40 20 -31 26 -124 61 -192 72 -87 14 -200 -29 -253 -97 -34 -42 -34
-43 -33 -148 1 -92 4 -110 25 -146 48 -81 96 -122 209 -176 45 -21 231 -78
256 -78 10 0 32 -7 48 -15 15 -8 37 -15 47 -15 18 0 60 -14 151 -51 26 -10 52
-19 58 -19 6 0 27 35 46 78 37 82 64 136 135 272 25 47 61 121 80 165 31 73
34 89 34 175 0 79 -4 103 -23 142 -27 55 -93 126 -140 151 -45 23 -144 21
-194 -4z m143 -30 c98 -33 170 -141 169 -255 -1 -43 -22 -139 -37 -169 -6 -11
-29 -58 -52 -105 -23 -47 -65 -130 -94 -186 -28 -55 -57 -114 -64 -132 -14
-38 -27 -40 -108 -11 -62 22 -168 52 -245 70 -25 6 -54 14 -65 19 -11 4 -45
17 -75 27 -143 47 -228 125 -256 234 -20 74 -15 120 19 170 38 57 89 79 183
79 130 0 217 -49 290 -162 24 -38 48 -68 54 -68 15 0 12 49 -6 119 -14 55 -14
66 2 128 9 38 23 75 30 84 8 8 14 21 14 28 0 23 96 108 141 124 55 19 59 20
100 6z"/>
<path d="M5261 8503 c-6 -21 -15 -80 -21 -132 -6 -51 -14 -101 -19 -110 -5 -9
-12 -47 -15 -86 -4 -38 -11 -90 -16 -115 -20 -92 -39 -217 -46 -287 -5 -67 -4
-73 13 -73 20 0 36 57 54 195 5 39 13 88 18 110 5 22 16 85 25 140 8 55 20
127 26 160 34 189 35 235 5 235 -8 0 -19 -16 -24 -37z"/>
<path d="M4634 8497 c-3 -8 2 -34 10 -58 8 -24 18 -62 22 -84 3 -22 11 -49 17
-60 6 -11 14 -36 18 -55 4 -19 15 -60 24 -90 10 -30 23 -77 30 -105 7 -27 18
-63 23 -80 6 -16 18 -56 27 -87 10 -37 21 -58 31 -58 21 0 22 87 1 125 -6 11
-14 36 -18 55 -4 19 -15 60 -24 90 -9 30 -22 78 -30 105 -7 28 -18 64 -23 80
-6 17 -18 59 -28 95 -9 36 -20 74 -24 85 -5 11 -11 28 -14 38 -6 20 -34 23
-42 4z"/>
<path d="M5819 8220 c-85 -45 -129 -122 -129 -225 0 -72 26 -166 100 -365 18
-47 37 -107 44 -135 l12 -50 39 2 c386 15 490 32 576 89 43 30 99 136 99 189
0 51 -32 107 -86 151 -45 37 -49 38 -138 42 -50 2 -111 -1 -136 -7 -51 -11
-59 -5 -60 44 -1 70 -59 187 -113 228 -80 61 -142 72 -208 37z m179 -80 c23
-21 50 -56 60 -77 27 -55 45 -145 38 -187 -3 -20 -9 -52 -12 -71 -8 -47 8 -46
57 4 39 41 112 71 171 71 42 0 127 -36 160 -67 25 -24 28 -34 28 -88 0 -52 -5
-68 -28 -101 -39 -53 -48 -59 -117 -82 -45 -15 -100 -22 -215 -27 -85 -3 -171
-11 -191 -16 -20 -5 -43 -7 -51 -4 -7 3 -24 40 -37 83 -13 42 -29 91 -37 107
-131 297 -101 495 77 495 52 0 60 -3 97 -40z"/>
<path d="M3746 8058 c-8 -13 -20 -70 -26 -128 -6 -58 -18 -121 -25 -140 -8
-19 -17 -51 -21 -70 -3 -19 -10 -41 -14 -50 -4 -8 -15 -33 -25 -55 -9 -22 -21
-47 -26 -55 -5 -8 -12 -22 -16 -30 -21 -46 -131 -174 -185 -215 -73 -55 -184
-112 -237 -121 -20 -3 -61 -13 -91 -20 -62 -16 -155 -17 -220 -4 -25 6 -69 14
-98 20 -61 11 -187 52 -250 82 -35 17 -48 18 -68 9 -13 -6 -24 -18 -24 -26 0
-9 34 -61 75 -115 41 -54 75 -101 75 -104 0 -3 12 -22 26 -43 31 -46 94 -178
94 -197 0 -8 6 -27 14 -43 20 -38 46 -188 46 -260 0 -67 -30 -217 -56 -283
-48 -121 -153 -264 -252 -344 -77 -62 -197 -128 -286 -157 -34 -11 -77 -25
-96 -31 -20 -7 -100 -12 -190 -13 -85 0 -161 -4 -168 -9 -20 -12 -6 -53 37
-105 83 -102 231 -367 231 -414 0 -10 6 -30 14 -45 26 -51 39 -212 26 -319 -7
-54 -18 -108 -26 -120 -8 -12 -14 -29 -14 -36 0 -8 -12 -36 -26 -63 -73 -139
-190 -275 -339 -395 -44 -35 -82 -67 -85 -70 -8 -9 -199 -139 -205 -139 -3 0
-34 -18 -68 -39 -34 -22 -81 -51 -104 -66 -47 -29 -58 -66 -25 -84 20 -11 90
3 134 25 14 8 37 14 51 14 14 0 38 5 52 10 37 14 154 37 255 50 47 6 114 15
150 20 84 12 211 12 229 1 10 -7 13 -24 10 -63 -2 -29 -3 -97 -2 -151 2 -83 7
-108 34 -175 46 -111 168 -305 224 -357 6 -5 27 -30 47 -55 19 -25 80 -95 134
-155 55 -61 115 -130 134 -155 19 -24 45 -55 57 -68 12 -13 46 -61 75 -107 29
-46 61 -86 72 -89 25 -6 56 7 86 36 28 27 184 132 221 148 13 6 40 20 59 31
57 35 285 159 335 183 18 9 34 11 41 5 17 -14 74 -127 74 -147 0 -10 5 -23 11
-29 22 -22 41 -152 48 -323 3 -96 10 -181 14 -187 12 -18 42 -16 58 5 8 9 23
35 33 57 28 60 52 106 75 145 11 19 24 42 28 50 17 37 162 218 226 284 80 80
216 196 230 196 3 0 36 20 74 45 37 25 72 45 77 45 5 0 33 11 61 25 134 63
320 79 445 39 132 -43 237 -124 326 -251 72 -102 99 -136 110 -140 5 -2 50 36
100 84 84 83 191 153 235 153 8 0 32 7 54 15 52 19 91 18 156 -1 112 -33 199
-91 289 -193 30 -34 59 -61 65 -61 7 0 20 9 30 20 18 20 18 23 2 68 -49 141
-47 294 5 445 23 65 100 170 166 222 68 55 177 105 257 117 165 26 246 21 485
-33 39 -9 53 -9 65 1 31 26 12 53 -80 114 -109 73 -310 271 -377 372 -39 59
-72 119 -130 237 -12 25 -38 102 -54 162 -13 48 -12 51 11 70 13 11 46 31 72
45 38 20 151 84 210 118 121 71 256 189 317 276 62 88 83 139 101 241 15 88
15 114 -7 225 -22 117 -101 226 -197 271 -68 32 -175 51 -251 44 -64 -6 -66
-6 -95 27 -71 78 -153 218 -189 323 -60 172 -65 480 -11 680 24 92 67 269 74
310 4 22 12 49 18 60 19 36 24 119 9 140 -20 27 -37 16 -150 -92 -166 -160
-294 -246 -540 -366 -58 -28 -233 -67 -301 -67 -48 0 -159 23 -200 42 -149 67
-286 250 -335 448 -32 125 -48 160 -76 160 -8 0 -42 -13 -76 -28 -141 -64
-242 -87 -378 -87 -157 0 -259 34 -390 130 -79 58 -250 246 -250 275 0 6 -4
10 -9 10 -5 0 -22 21 -38 46 -15 26 -36 58 -45 73 -10 14 -24 40 -33 56 -8 17
-28 53 -45 80 -16 28 -34 59 -40 70 -28 58 -60 70 -84 33z m106 -240 c18 -29
35 -57 38 -63 31 -61 144 -209 219 -289 71 -74 212 -186 233 -186 8 0 22 -6
33 -13 47 -32 222 -77 301 -77 82 0 276 42 352 76 18 9 45 14 60 12 22 -2 28
-9 30 -33 2 -16 10 -38 18 -49 8 -11 14 -28 14 -38 0 -27 64 -161 111 -229 76
-112 176 -190 299 -234 105 -37 371 -22 462 26 10 5 23 9 29 9 7 0 33 10 58
21 48 22 58 27 129 65 74 39 213 135 285 196 65 55 97 71 97 47 0 -6 -6 -32
-14 -58 -30 -95 -53 -205 -76 -351 -6 -36 -13 -71 -15 -79 -10 -26 -6 -286 5
-341 32 -161 103 -329 191 -451 27 -37 49 -70 49 -73 0 -4 -21 -17 -47 -29
-109 -51 -215 -134 -269 -211 -27 -37 -51 -29 -60 20 -25 131 -191 324 -342
395 -37 17 -78 36 -91 42 -13 7 -67 12 -120 12 -85 0 -103 -3 -156 -28 -63
-31 -195 -156 -195 -187 0 -8 -6 -24 -13 -35 -22 -32 -45 -105 -58 -182 -9
-57 -9 -88 0 -150 12 -76 61 -212 88 -244 7 -8 13 -19 13 -23 0 -16 141 -209
198 -271 21 -22 62 -69 92 -105 30 -36 69 -81 86 -100 143 -161 179 -206 244
-307 29 -46 59 -83 67 -83 8 0 39 20 67 45 29 25 57 45 61 45 4 0 24 13 45 30
21 16 41 30 44 30 4 0 25 12 49 27 68 44 117 64 121 50 10 -37 40 -126 52
-154 8 -17 14 -34 14 -39 0 -10 65 -139 93 -186 55 -91 107 -156 198 -252 55
-57 99 -108 99 -114 0 -5 -63 -11 -152 -14 -116 -4 -161 -9 -185 -21 -18 -10
-38 -17 -46 -17 -14 0 -82 -30 -122 -53 -209 -123 -313 -315 -315 -579 0 -79
-5 -82 -73 -38 -70 44 -135 69 -209 79 -77 11 -195 -1 -245 -24 -93 -43 -111
-52 -148 -80 -22 -16 -57 -44 -78 -62 -20 -18 -43 -33 -50 -33 -7 0 -35 30
-62 68 -28 37 -66 82 -85 101 -86 82 -208 153 -297 171 -168 35 -160 35 -261
16 -97 -18 -160 -36 -217 -61 -81 -36 -168 -81 -177 -92 -6 -7 -15 -13 -20
-13 -16 0 -159 -115 -234 -186 -107 -104 -205 -222 -259 -312 -26 -43 -48 -72
-55 -72 -4 0 -13 35 -20 77 -21 132 -49 224 -95 316 -25 49 -45 92 -45 96 0 5
28 27 63 49 80 52 216 193 259 269 44 78 67 170 67 273 0 199 -74 335 -225
410 -67 34 -72 35 -189 35 -108 0 -128 -3 -200 -29 -122 -45 -192 -91 -284
-185 -76 -78 -84 -84 -96 -67 -8 10 -16 35 -20 56 -4 22 -13 44 -21 51 -8 6
-14 16 -14 21 0 17 -74 121 -120 168 -90 93 -194 154 -298 176 -84 18 -127 18
-195 0 -97 -25 -168 -79 -229 -172 l-43 -65 -115 3 c-156 4 -350 -9 -402 -28
-23 -8 -49 -12 -56 -9 -20 7 1 30 76 81 31 21 62 44 67 50 6 6 39 34 75 62 72
57 136 121 196 197 21 27 49 61 62 75 12 14 22 28 22 32 0 4 14 30 30 56 17
27 30 56 30 64 0 8 6 20 12 26 15 15 33 84 55 210 15 86 15 99 0 190 -19 110
-34 173 -52 217 -39 94 -83 185 -107 221 -16 23 -28 45 -28 49 0 4 -13 24 -30
45 -44 55 -40 70 18 70 73 0 298 51 337 77 11 7 25 13 32 13 22 0 170 94 239
151 61 50 163 164 190 213 7 11 28 53 47 91 32 64 43 96 76 222 32 118 5 365
-54 508 -22 51 -85 178 -110 220 -13 22 -24 46 -25 53 0 16 31 15 77 -2 21 -8
63 -17 93 -20 30 -3 80 -8 110 -12 67 -8 259 12 303 30 18 8 52 22 77 32 25
10 52 24 61 31 8 7 21 13 29 13 13 0 105 73 150 119 106 108 215 308 239 436
12 60 33 125 42 125 4 0 22 -24 41 -52z m2127 -2000 c134 -61 269 -201 317
-331 26 -70 36 -157 29 -260 -6 -102 0 -127 33 -127 22 0 52 39 52 69 0 34 30
121 66 189 43 83 177 203 264 238 120 47 145 53 230 55 109 3 171 -20 240 -90
44 -44 61 -70 78 -122 45 -135 22 -303 -59 -419 -44 -62 -116 -136 -167 -171
-23 -16 -48 -33 -55 -39 -16 -14 -118 -80 -123 -80 -2 0 -21 -10 -42 -23 -40
-25 -114 -66 -257 -143 -121 -64 -281 -161 -327 -197 -20 -16 -41 -26 -47 -23
-6 4 -26 30 -45 59 -19 29 -45 63 -57 76 -12 13 -38 44 -57 70 -19 25 -74 89
-122 141 -47 52 -96 109 -109 125 -12 17 -39 48 -60 70 -54 57 -145 182 -175
239 -14 27 -30 54 -35 60 -4 6 -11 20 -14 31 -3 11 -15 47 -26 79 -74 212 55
508 239 547 56 12 179 0 229 -23z m-3464 -1707 c270 -99 437 -365 396 -632
-11 -67 -10 -74 7 -92 26 -25 60 -15 68 21 35 161 79 247 174 342 117 116 245
170 405 170 85 0 102 -3 158 -30 69 -32 107 -75 146 -164 18 -41 21 -68 21
-168 0 -82 -4 -128 -14 -146 -7 -15 -22 -47 -34 -72 -11 -25 -42 -70 -68 -100
-50 -57 -190 -176 -221 -187 -10 -4 -20 -9 -23 -13 -3 -3 -34 -23 -70 -44 -36
-20 -72 -41 -80 -46 -8 -5 -46 -26 -85 -46 -71 -37 -149 -80 -220 -121 -22
-12 -47 -26 -55 -30 -8 -3 -34 -19 -57 -35 -23 -15 -44 -28 -48 -28 -3 0 -27
-16 -52 -35 -25 -19 -51 -35 -58 -35 -6 0 -33 29 -59 65 -42 58 -201 251 -230
281 -31 31 -149 165 -184 209 -22 28 -52 64 -66 80 -14 17 -25 35 -26 41 0 6
-9 19 -19 28 -11 10 -27 32 -36 49 -9 18 -26 50 -38 72 -28 50 -52 114 -67
183 -37 163 73 411 208 469 69 30 167 36 227 14z"/>
<path d="M4270 6954 c-86 -19 -125 -37 -188 -86 -99 -77 -169 -179 -196 -286
-8 -37 -16 -48 -33 -50 -13 -2 -23 1 -23 6 0 18 -93 102 -148 134 -110 63
-178 81 -292 76 -91 -5 -138 -22 -200 -74 -96 -81 -134 -241 -93 -388 50 -180
180 -295 519 -459 54 -27 106 -53 114 -57 8 -5 56 -29 106 -54 50 -24 121 -65
158 -91 52 -35 71 -43 81 -35 7 6 33 43 56 83 24 40 53 83 66 97 13 14 23 28
23 32 0 4 26 38 58 75 66 77 192 236 207 261 6 9 22 33 37 53 66 87 130 241
145 347 11 84 -50 243 -127 325 -76 83 -168 114 -270 91z m151 -60 c48 -24
117 -92 139 -139 47 -102 50 -114 50 -199 0 -85 -3 -96 -53 -206 -34 -75 -124
-206 -204 -299 -21 -24 -55 -67 -76 -95 -20 -27 -41 -52 -45 -55 -4 -4 -20
-24 -35 -47 -15 -22 -36 -50 -46 -60 -10 -11 -20 -24 -22 -29 -2 -6 -18 -31
-34 -57 -31 -51 -61 -62 -85 -33 -7 8 -17 15 -23 15 -6 0 -18 7 -27 15 -9 8
-126 69 -260 136 -329 164 -404 213 -483 317 -72 95 -80 122 -75 259 3 108 6
122 30 160 88 135 278 161 468 62 112 -58 190 -155 235 -292 14 -40 24 -57 35
-55 13 3 14 22 11 127 -3 129 -1 143 52 249 36 71 143 175 217 210 77 37 173
43 231 16z"/>
<path d="M4920 6691 c-25 -9 -49 -19 -55 -22 -5 -4 -29 -10 -52 -14 -50 -8
-63 -23 -38 -41 20 -15 39 -12 125 17 30 11 61 17 70 14 8 -3 26 -28 40 -57
62 -135 189 -264 318 -324 40 -19 81 -34 90 -34 10 0 39 -7 65 -16 120 -41
362 19 526 130 88 60 91 48 26 -90 -45 -95 -48 -125 -11 -111 19 7 73 119 116
237 53 147 37 172 -57 85 -78 -72 -252 -175 -296 -175 -8 0 -28 -7 -43 -15
-21 -11 -63 -15 -154 -15 -91 0 -133 4 -154 15 -15 8 -35 15 -44 15 -31 0
-146 74 -199 128 -69 69 -163 211 -163 245 0 18 -33 47 -51 46 -8 -1 -34 -9
-59 -18z"/>
<path d="M3090 5793 c-48 -67 -137 -160 -185 -192 -108 -73 -255 -119 -340
-108 -53 8 -73 -13 -51 -54 7 -13 29 -58 50 -99 21 -41 42 -83 47 -93 15 -28
46 -134 60 -204 14 -69 6 -123 -33 -218 -28 -69 -131 -204 -227 -300 -77 -76
-94 -106 -70 -121 6 -3 27 1 47 9 154 63 458 63 533 0 8 -7 20 -13 26 -13 10
0 82 -70 106 -104 8 -11 19 -16 25 -12 44 27 -41 129 -156 188 -20 10 -79 26
-130 35 -83 15 -105 15 -185 3 -159 -23 -159 -23 -73 75 136 154 186 263 185
405 0 86 -26 211 -47 232 -7 7 -12 18 -12 25 0 7 -19 51 -42 98 -48 97 -46
105 30 105 72 0 172 36 262 95 68 44 227 210 235 245 6 29 1 50 -14 50 -4 0
-23 -21 -41 -47z"/>
<path d="M5820 4095 c-81 -41 -149 -111 -190 -192 -25 -52 -32 -80 -37 -158
-7 -111 -8 -112 -99 -63 -54 30 -66 33 -149 33 -107 0 -149 -15 -242 -87 -38
-29 -68 -45 -77 -42 -9 3 -25 22 -37 42 -44 74 -206 201 -257 202 -9 1 -28 7
-42 15 -44 25 -192 19 -285 -11 -91 -29 -106 -39 -98 -61 7 -18 60 -11 108 15
45 24 261 24 298 0 14 -10 33 -18 41 -18 41 0 224 -186 249 -252 11 -30 35
-20 94 38 77 77 158 114 252 114 38 0 73 -4 76 -10 3 -5 12 -10 20 -10 23 0
101 -58 143 -105 46 -53 72 -59 72 -16 0 16 -7 45 -15 64 -31 74 -15 196 39
306 26 54 103 124 172 157 57 27 79 47 69 64 -10 16 -36 10 -105 -25z"/>
<path d="M7776 7181 c-5 -8 -210 -147 -258 -176 -10 -5 -64 -41 -120 -79 -201
-135 -280 -186 -288 -186 -4 0 -10 -7 -14 -15 -3 -8 -10 -15 -15 -15 -5 0 -60
-34 -121 -75 -61 -41 -115 -75 -120 -75 -11 0 -19 -36 -10 -50 7 -12 111 25
314 111 38 16 77 29 87 29 10 0 20 4 23 9 3 4 45 23 93 41 83 31 221 86 290
116 17 8 36 14 41 14 6 0 23 6 39 14 15 8 53 25 83 37 73 28 80 35 80 78 0 30
-23 172 -36 219 -4 14 -60 17 -68 3z m29 -73 c12 -32 22 -145 14 -159 -5 -9
-21 -20 -36 -23 -16 -4 -41 -13 -58 -21 -16 -8 -73 -31 -125 -51 -52 -20 -99
-39 -105 -43 -5 -4 -35 -15 -65 -26 -30 -10 -66 -25 -80 -32 -14 -7 -30 -13
-37 -13 -6 0 -24 -6 -40 -14 -102 -52 -164 -57 -107 -10 16 13 32 23 36 24 4
0 37 20 72 44 35 24 68 45 72 47 5 2 42 27 82 54 41 28 81 55 90 60 9 6 33 22
53 38 20 15 39 27 42 27 3 0 41 24 84 54 81 57 100 65 108 44z"/>
<path d="M1467 7013 c-4 -3 -7 -19 -7 -33 0 -15 -6 -45 -14 -66 -19 -55 -30
-159 -18 -180 9 -16 55 -37 117 -53 17 -4 39 -13 50 -19 29 -15 189 -72 204
-72 7 0 25 -6 39 -14 15 -8 41 -19 57 -24 17 -6 68 -24 115 -42 104 -38 171
-60 188 -60 13 0 17 46 3 52 -4 2 -21 13 -37 26 -26 20 -187 141 -259 195 -16
12 -52 40 -80 62 -27 23 -67 51 -87 64 -21 12 -38 26 -38 29 0 4 -17 18 -38
32 -20 13 -61 44 -90 67 -50 40 -89 53 -105 36z m75 -76 c7 -6 105 -81 218
-166 195 -146 230 -175 230 -192 0 -4 -24 2 -52 13 -29 11 -68 23 -87 28 -18
5 -38 13 -44 19 -6 6 -20 11 -30 11 -10 0 -33 7 -50 14 -18 8 -61 25 -97 36
-36 12 -69 25 -75 30 -5 4 -24 11 -42 15 -38 8 -47 28 -33 75 6 19 10 51 10
70 0 51 25 73 52 47z"/>
<path d="M1687 6292 c-22 -4 -22 -29 1 -40 9 -5 117 -13 240 -16 l222 -8 0 26
c0 18 -6 27 -22 31 -26 5 -417 12 -441 7z"/>
<path d="M6925 6281 c-3 -5 2 -17 11 -25 13 -14 55 -16 308 -16 245 0 296 2
306 15 6 8 9 19 5 25 -8 13 -621 14 -630 1z"/>
<path d="M6924 3239 c-86 -20 -176 -131 -193 -238 -11 -65 1 -173 24 -226 19
-45 118 -242 152 -306 17 -30 48 -94 68 -142 38 -89 52 -101 84 -74 16 13 107
44 261 87 132 38 275 84 290 95 8 6 31 19 50 29 49 26 113 95 139 150 26 52
37 134 27 200 -15 95 -136 176 -262 176 -61 0 -161 -31 -213 -66 -50 -33 -71
-27 -71 20 0 108 -134 271 -242 296 -50 11 -59 11 -114 -1z m121 -53 c130 -55
208 -206 183 -356 -6 -36 -14 -73 -19 -82 -7 -13 -4 -20 10 -28 16 -8 23 -5
40 24 12 18 21 38 21 44 0 21 110 108 157 125 117 41 227 30 287 -28 57 -55
68 -126 35 -239 -22 -79 -145 -167 -290 -211 -30 -9 -67 -21 -84 -26 -16 -6
-48 -15 -70 -19 -67 -13 -185 -50 -232 -72 -28 -13 -53 -4 -60 22 -3 12 -32
71 -64 133 -31 62 -74 146 -94 187 -21 41 -42 84 -47 94 -19 36 -48 150 -48
187 0 87 65 200 138 239 45 23 91 25 137 6z"/>
</g>
</svg>
