<?xml version="1.0" standalone="no"?>
<!DOCTYPE svg PUBLIC "-//W3C//DTD SVG 20010904//EN"
 "http://www.w3.org/TR/2001/REC-SVG-20010904/DTD/svg10.dtd">
<svg version="1.0" xmlns="http://www.w3.org/2000/svg"
 width="900.000000pt" height="900.000000pt" viewBox="0 0 900.000000 900.000000"
 preserveAspectRatio="xMidYMid meet">
<metadata>
Created by potrace 1.10, written by Peter Selinger 2001-2011
</metadata>
<g transform="translate(0.000000,900.000000) scale(0.100000,-0.100000)"
fill="#000000" stroke="none">
<path d="M4266 8628 c-10 -14 -16 -44 -16 -78 0 -31 -6 -80 -14 -110 -7 -30
-16 -91 -20 -135 -6 -81 -19 -185 -36 -285 -5 -30 -14 -108 -20 -172 -5 -64
-14 -127 -19 -140 -5 -13 -11 -64 -15 -113 -8 -116 -29 -238 -42 -242 -6 -2
-22 7 -35 19 -53 51 -186 129 -269 158 -96 33 -280 37 -338 7 -15 -8 -44 -23
-65 -33 -40 -20 -147 -113 -147 -129 0 -4 -6 -16 -14 -24 -45 -49 -83 -153
-120 -318 -12 -57 -25 -105 -28 -109 -4 -3 -46 7 -95 24 -48 17 -103 33 -120
37 -18 4 -35 11 -38 16 -4 5 -17 9 -29 9 -13 0 -54 11 -92 25 -90 33 -152 47
-175 40 -23 -8 -25 -49 -4 -85 8 -14 17 -32 22 -40 4 -8 31 -55 60 -103 29
-48 53 -92 53 -97 0 -14 -38 -12 -68 4 -52 26 -103 46 -120 46 -10 0 -26 6
-37 14 -11 7 -31 16 -45 19 -14 3 -50 15 -80 27 -30 12 -66 25 -80 30 -14 5
-61 22 -105 38 -44 17 -96 36 -115 42 -19 7 -47 19 -62 26 -14 8 -32 14 -39
14 -14 0 -158 54 -202 76 -43 21 -84 18 -90 -7 -9 -34 5 -56 63 -99 29 -22 56
-44 59 -48 4 -4 34 -29 68 -55 34 -26 68 -53 75 -60 7 -6 45 -37 83 -68 39
-31 81 -66 95 -78 14 -11 55 -45 91 -74 201 -160 329 -263 366 -294 24 -20 50
-41 58 -47 25 -18 8 -43 -33 -51 -20 -4 -80 -27 -132 -53 -81 -39 -109 -60
-187 -138 -51 -51 -93 -97 -93 -103 0 -6 -11 -29 -25 -51 -28 -45 -47 -94 -75
-195 -27 -98 -28 -319 -1 -425 79 -310 266 -552 534 -691 61 -32 73 -42 79
-71 17 -69 40 -138 49 -144 5 -3 9 -20 9 -38 0 -33 -14 -50 -157 -177 -149
-133 -236 -215 -244 -231 -6 -12 -6 -25 1 -38 10 -19 21 -20 175 -20 90 0 166
-4 169 -8 2 -4 2 -13 -2 -19 -6 -9 -228 -195 -397 -333 -37 -30 -73 -60 -79
-66 -7 -6 -84 -71 -172 -144 -87 -73 -160 -140 -162 -149 -2 -10 5 -25 16 -34
17 -16 21 -16 68 2 51 19 135 53 191 77 18 8 50 22 70 30 21 9 51 23 66 30 16
8 36 14 46 14 9 0 21 4 27 9 5 5 50 26 99 46 50 20 105 44 122 51 36 16 84 37
140 60 21 9 51 23 66 30 16 8 33 14 38 14 6 0 37 14 71 30 33 17 68 30 78 30
11 0 21 4 24 9 3 4 34 19 68 31 35 13 72 29 83 37 11 7 34 13 53 13 28 0 36
-5 48 -32 27 -58 41 -79 97 -147 54 -64 160 -159 209 -186 124 -70 316 -145
370 -145 15 0 45 -7 65 -15 21 -8 71 -16 111 -19 41 -2 75 -6 76 -8 13 -22 36
-82 36 -93 0 -8 9 -19 21 -25 17 -9 25 -8 41 6 21 20 102 154 134 221 25 55
50 57 63 6 5 -21 15 -74 21 -118 6 -44 15 -102 20 -130 5 -27 16 -93 25 -145
8 -52 19 -117 24 -145 6 -27 17 -95 26 -150 9 -55 20 -116 25 -135 5 -19 12
-66 16 -103 6 -56 11 -71 30 -83 36 -24 61 -4 69 54 3 26 10 83 16 127 5 44
14 107 20 140 5 33 14 107 19 165 5 58 14 121 19 140 6 19 12 68 14 109 3 73
4 74 37 93 19 10 50 18 68 18 32 0 60 6 202 46 95 27 220 88 295 145 48 36 55
39 98 33 25 -4 90 -1 143 6 93 11 155 34 265 95 40 23 134 128 157 177 52 110
53 116 51 271 -2 82 1 151 7 156 5 5 52 5 104 0 52 -4 132 -11 177 -15 147
-12 147 9 2 246 -21 35 -38 83 -33 91 3 5 17 3 32 -5 15 -8 54 -24 87 -35 33
-11 85 -30 115 -41 30 -12 69 -26 85 -31 17 -5 39 -13 50 -17 80 -35 98 -42
113 -42 10 0 22 -4 28 -9 5 -6 43 -21 84 -35 125 -42 165 -57 174 -67 6 -5 19
-9 29 -9 10 0 35 -7 55 -16 21 -9 52 -22 70 -30 18 -8 50 -14 71 -14 32 0 40
4 45 23 5 19 -23 51 -189 212 -217 212 -495 481 -648 626 -99 94 -101 96 -86
120 25 40 90 205 110 279 50 187 57 226 64 340 8 156 -5 278 -40 365 -15 39
-34 77 -41 86 -18 21 -18 63 1 79 8 7 15 18 15 24 0 6 20 42 45 79 25 38 45
72 45 75 0 4 20 38 45 76 54 82 62 107 40 130 -14 13 -41 16 -176 16 -199 0
-198 -1 -64 106 55 44 100 81 124 105 9 8 36 30 61 49 25 19 77 62 116 95 119
100 236 198 284 236 71 57 130 117 130 132 0 8 -9 22 -20 32 -19 17 -22 17
-53 2 -17 -8 -52 -23 -77 -32 -25 -10 -57 -23 -72 -31 -14 -8 -33 -14 -41 -14
-9 0 -28 -6 -44 -14 -15 -8 -48 -22 -73 -32 -25 -9 -59 -23 -77 -30 -17 -8
-36 -14 -41 -14 -6 0 -23 -7 -39 -15 -15 -8 -66 -29 -113 -46 -47 -18 -98 -38
-115 -45 -16 -6 -50 -20 -75 -29 -25 -10 -57 -23 -72 -31 -14 -8 -33 -14 -41
-14 -9 0 -28 -6 -44 -14 -74 -38 -183 -77 -204 -74 -21 3 -25 10 -31 63 -8 73
-22 144 -41 210 -16 56 -65 163 -84 183 -7 7 -13 19 -13 25 0 33 -200 207
-236 207 -6 0 -15 5 -22 12 -20 20 -152 47 -232 48 -109 0 -210 -25 -325 -83
-64 -32 -79 -41 -97 -56 -9 -7 -22 -11 -29 -9 -15 5 -49 112 -49 158 0 19 -7
46 -15 60 -8 14 -14 38 -15 53 0 36 -27 147 -49 207 -33 89 -68 59 -177 -146
-15 -28 -35 -61 -44 -74 l-18 -23 -11 22 c-7 12 -18 66 -25 120 -7 53 -16 102
-20 109 -4 6 -11 49 -16 94 -5 46 -14 103 -19 128 -34 159 -41 199 -41 231 0
20 -7 56 -15 79 -8 23 -15 58 -15 76 0 55 -33 188 -49 201 -23 18 -38 16 -55
-9z m74 -502 c6 -49 13 -92 15 -96 3 -4 10 -39 15 -76 25 -157 39 -242 49
-294 6 -30 18 -99 28 -153 12 -74 21 -101 35 -108 25 -14 57 -2 69 24 10 23
52 98 88 157 11 19 26 47 32 62 10 26 34 42 49 33 4 -3 10 -19 13 -37 10 -64
35 -183 45 -213 5 -16 15 -58 21 -93 l12 -63 -90 -95 c-92 -97 -185 -223 -203
-274 -6 -20 -6 -35 2 -49 16 -32 45 -26 69 15 67 113 239 308 336 379 57 42
71 51 150 89 116 56 134 60 268 64 104 2 133 0 153 -12 13 -9 32 -16 42 -16
11 0 25 -7 32 -15 7 -8 17 -15 22 -15 12 0 128 -89 128 -98 0 -4 10 -18 23
-32 31 -33 97 -155 97 -178 0 -10 5 -23 11 -29 38 -38 60 -361 35 -506 -23
-134 -22 -174 6 -183 24 -7 55 22 62 60 2 11 9 48 15 82 6 33 11 80 11 105 0
49 22 89 49 89 9 0 26 7 37 15 10 8 25 15 33 15 12 0 169 60 211 80 8 4 53 22
100 39 47 18 99 38 115 45 17 8 68 28 115 45 47 18 99 38 115 45 92 41 116 49
125 40 6 -6 -14 -28 -52 -59 -34 -28 -70 -58 -81 -69 -10 -10 -56 -47 -101
-83 -44 -36 -97 -80 -116 -97 -19 -18 -60 -51 -90 -75 -30 -24 -73 -59 -95
-80 -22 -20 -61 -53 -87 -74 -30 -23 -48 -45 -48 -59 0 -42 24 -47 217 -48
105 0 184 -4 188 -10 3 -5 -7 -29 -22 -52 -15 -24 -34 -56 -43 -73 -31 -59
-85 -135 -96 -135 -6 0 -28 11 -48 25 -41 28 -84 33 -92 10 -10 -24 4 -63 25
-70 24 -7 112 -91 135 -128 43 -70 76 -211 76 -322 -1 -104 -43 -344 -69 -393
-6 -11 -11 -29 -11 -40 0 -18 -35 -107 -83 -212 -26 -58 -77 -138 -111 -173
-40 -43 -33 -87 14 -87 21 0 39 12 70 47 l41 47 52 -50 c220 -210 273 -261
520 -501 113 -110 159 -163 142 -163 -8 0 -126 45 -173 66 -18 7 -38 14 -44
14 -11 0 -133 45 -203 75 -16 7 -70 27 -120 44 -49 18 -103 38 -120 46 -16 7
-41 16 -55 20 -25 6 -31 9 -106 40 -22 9 -58 15 -80 13 -34 -3 -39 -7 -42 -29
-2 -14 4 -31 12 -39 9 -7 16 -16 16 -21 0 -5 18 -39 41 -75 22 -37 45 -77 50
-88 5 -12 18 -34 29 -51 45 -69 40 -75 -55 -64 -38 4 -102 8 -141 8 -41 1 -77
6 -85 13 -9 7 -37 49 -64 93 -63 103 -95 145 -175 227 -53 55 -69 67 -87 62
-34 -9 -29 -49 10 -94 182 -209 245 -325 277 -509 14 -77 1 -167 -36 -248 -44
-98 -173 -205 -279 -232 -22 -5 -58 -15 -80 -20 -56 -15 -85 -13 -91 4 -7 16
-4 24 25 70 38 60 91 167 91 184 0 9 5 22 11 28 6 6 9 21 7 34 -2 19 -10 25
-34 27 -29 3 -34 -1 -54 -45 -22 -48 -53 -111 -79 -161 -8 -15 -18 -29 -23
-30 -4 -2 -8 -8 -8 -14 0 -20 -85 -112 -143 -154 -105 -77 -224 -124 -412
-163 -22 -5 -52 -12 -67 -16 -40 -10 -44 10 -25 130 10 57 17 123 17 149 0 25
7 80 17 121 16 75 16 76 -5 97 -18 18 -25 20 -45 11 -21 -10 -26 -21 -31 -70
-11 -97 -26 -215 -36 -273 -6 -31 -12 -92 -16 -135 -3 -44 -12 -114 -19 -155
-8 -41 -19 -127 -26 -190 -20 -194 -24 -215 -34 -213 -14 2 -35 76 -45 163 -5
41 -13 98 -19 125 -5 28 -17 95 -27 150 -9 55 -22 127 -30 161 -8 33 -14 78
-14 99 0 57 -30 144 -53 151 -24 7 -56 -22 -86 -79 -12 -23 -38 -69 -57 -102
-19 -33 -39 -70 -44 -83 -14 -32 -43 -24 -51 13 -4 17 -15 66 -25 110 -9 44
-23 105 -31 135 -7 30 -13 63 -13 74 0 35 -31 104 -50 109 -9 2 -25 0 -35 -5
-15 -9 -16 -19 -10 -75 4 -35 13 -76 21 -91 8 -15 14 -40 14 -57 0 -16 9 -64
20 -105 26 -97 22 -102 -80 -90 -41 5 -95 15 -120 21 -73 18 -167 47 -187 57
-10 5 -44 21 -75 36 -52 25 -115 67 -191 126 -63 50 -165 204 -223 335 -28 65
-30 68 -47 79 -12 8 -21 5 -36 -8 -22 -20 -28 -51 -11 -61 19 -12 10 -40 -18
-53 -15 -7 -65 -29 -112 -48 -47 -19 -98 -42 -113 -50 -16 -8 -32 -14 -37 -14
-7 0 -51 -18 -175 -74 -16 -8 -66 -28 -110 -46 -44 -18 -95 -39 -112 -46 -62
-27 -98 -43 -138 -59 -22 -8 -53 -22 -68 -30 -30 -16 -67 -20 -67 -7 0 4 52
50 116 102 63 52 128 106 144 120 15 14 107 90 203 170 97 80 180 155 186 167
8 17 6 25 -10 39 -17 15 -38 17 -179 15 -185 -3 -199 4 -134 61 21 18 65 58
99 89 119 111 143 129 164 129 11 0 21 -3 21 -8 0 -12 130 -107 190 -139 30
-16 77 -37 104 -47 48 -18 48 -18 69 2 19 19 19 24 7 47 -7 14 -19 25 -26 25
-17 0 -138 58 -189 91 -50 33 -127 110 -145 146 -8 16 -19 35 -25 43 -40 54
-60 265 -34 365 6 22 14 57 18 78 5 21 14 44 20 50 6 6 11 19 11 28 0 9 14 45
31 79 38 77 37 123 -3 128 -24 3 -30 -4 -71 -90 -50 -103 -67 -155 -92 -273
-9 -44 -18 -86 -21 -93 -3 -10 -22 -4 -72 24 -37 21 -72 42 -79 48 -7 6 -39
34 -71 61 -56 49 -144 146 -166 184 -9 16 -37 71 -98 194 -52 105 -70 385 -34
527 11 41 26 82 33 91 7 8 13 21 13 29 0 53 168 237 260 284 124 64 210 84
379 85 111 1 141 12 141 53 0 26 -39 38 -129 38 l-78 0 -78 63 c-43 34 -87 69
-99 77 -11 8 -48 37 -81 65 -33 28 -82 68 -110 90 -27 22 -52 42 -55 45 -3 3
-36 30 -75 60 -38 30 -75 59 -81 65 -6 5 -54 44 -107 85 -91 71 -114 96 -102
108 3 3 29 -4 58 -16 29 -12 59 -22 67 -22 9 0 24 -6 35 -14 11 -7 31 -16 45
-19 14 -3 50 -15 80 -27 30 -12 66 -24 80 -27 14 -3 34 -12 45 -19 11 -8 26
-14 33 -14 8 0 30 -7 50 -16 21 -9 52 -22 70 -30 18 -8 40 -14 48 -14 8 0 25
-5 37 -12 12 -7 57 -24 100 -40 74 -25 80 -26 103 -11 13 8 24 17 24 18 0 9
-39 86 -61 120 -14 22 -29 47 -32 55 -4 8 -16 29 -27 45 -21 33 -50 86 -50 92
0 9 69 1 94 -12 15 -8 34 -15 42 -15 17 0 194 -56 254 -80 l45 -19 3 -112 c3
-114 14 -149 47 -149 32 0 37 30 40 227 2 196 15 296 49 378 78 186 163 269
312 302 63 14 84 14 120 5 24 -7 54 -12 65 -12 33 0 137 -47 209 -95 70 -46
221 -202 274 -282 51 -78 73 -89 100 -51 18 25 10 42 -75 159 l-48 65 10 95
c5 52 16 132 24 179 8 47 17 114 20 150 7 79 22 196 41 314 8 49 14 113 14
142 0 28 3 66 6 84 7 31 7 31 26 13 13 -14 21 -44 28 -107z"/>
<path d="M5207 7136 c-70 -29 -97 -47 -154 -99 -56 -51 -68 -74 -53 -92 10
-12 23 -4 79 46 36 33 87 71 112 84 59 30 149 41 222 25 79 -16 159 -89 210
-192 20 -41 37 -79 37 -86 0 -6 9 -12 20 -12 29 0 26 41 -11 118 -40 86 -118
167 -194 203 -80 38 -182 40 -268 5z"/>
<path d="M3645 4899 c-9 -14 2 -71 20 -106 8 -15 15 -33 15 -38 0 -6 8 -26 18
-45 93 -180 225 -294 407 -351 85 -27 295 -11 295 22 0 17 -25 21 -163 22 -88
2 -150 7 -162 14 -11 7 -40 21 -65 32 -78 34 -207 159 -240 231 -6 14 -20 41
-30 60 -10 19 -29 65 -41 103 -21 63 -39 81 -54 56z"/>
<path d="M5734 8279 c-36 -10 -97 -68 -118 -114 -47 -99 24 -240 133 -264 98
-21 194 33 226 127 19 59 19 88 -4 137 -43 97 -139 143 -237 114z m119 -55
c57 -29 76 -61 77 -131 0 -52 -4 -66 -26 -93 -51 -60 -108 -74 -169 -41 -59
31 -75 60 -75 133 1 50 5 69 23 90 46 56 111 72 170 42z"/>
<path d="M3360 8151 c-61 -15 -100 -67 -100 -131 0 -143 176 -193 251 -71 35
58 19 142 -35 182 -25 19 -82 29 -116 20z m79 -56 c60 -30 49 -133 -17 -161
-32 -13 -38 -12 -65 4 -55 31 -60 129 -8 157 34 18 55 18 90 0z"/>
<path d="M3720 7942 c-66 -33 -78 -135 -22 -187 69 -64 162 -28 188 73 10 37
-25 103 -63 118 -43 18 -61 18 -103 -4z m88 -48 c30 -20 31 -88 3 -104 -29
-15 -67 -12 -85 6 -22 22 -20 70 4 94 24 24 48 25 78 4z"/>
<path d="M5266 7913 c-43 -11 -86 -77 -86 -132 0 -45 29 -102 65 -125 14 -9
45 -16 71 -16 43 0 51 4 91 45 36 38 43 52 43 85 0 104 -83 169 -184 143z m96
-63 c62 -48 29 -160 -47 -160 -56 0 -104 67 -83 117 26 61 83 80 130 43z"/>
<path d="M2980 7822 c-23 -11 -44 -33 -59 -63 -22 -42 -24 -50 -13 -86 15 -49
45 -82 95 -106 37 -17 40 -17 81 2 83 36 114 117 76 196 -34 70 -107 94 -180
57z m124 -63 c35 -41 34 -83 -3 -120 -36 -36 -77 -38 -114 -6 -21 18 -27 32
-27 65 0 87 90 125 144 61z"/>
<path d="M5915 7740 c-50 -22 -70 -44 -89 -98 -14 -38 -13 -47 1 -91 23 -71
60 -96 144 -96 63 0 67 1 101 39 86 94 38 230 -92 259 -14 3 -43 -3 -65 -13z
m119 -71 c46 -54 32 -135 -28 -163 -100 -47 -186 86 -107 165 42 42 99 41 135
-2z"/>
<path d="M6115 7251 c-39 -8 -95 -81 -95 -125 0 -21 11 -48 30 -74 57 -79 153
-79 211 0 38 53 38 93 0 146 -16 22 -33 42 -38 45 -17 9 -79 14 -108 8z m92
-63 c34 -32 32 -99 -3 -127 -15 -12 -37 -21 -49 -21 -12 0 -34 9 -49 21 -20
16 -26 29 -26 62 0 77 74 115 127 65z"/>
<path d="M1605 6633 c-51 -56 -23 -155 48 -168 71 -14 127 46 112 121 -13 72
-110 100 -160 47z m103 -35 c18 -18 14 -53 -7 -72 -25 -23 -48 -18 -69 16 -15
25 -15 28 3 47 20 23 55 27 73 9z"/>
<path d="M1918 6400 c-32 -35 -38 -47 -38 -86 0 -89 53 -144 139 -144 47 0 54
4 91 41 37 39 40 45 40 99 0 52 -3 60 -37 93 -34 34 -41 37 -96 37 -57 0 -62
-2 -99 -40z m141 -15 c51 -26 56 -103 10 -146 -36 -33 -50 -35 -90 -12 -57 34
-62 114 -11 152 32 24 54 26 91 6z"/>
<path d="M6910 6169 c-68 -48 -84 -74 -88 -149 -5 -84 12 -126 72 -175 43 -35
51 -37 111 -37 47 0 71 4 84 16 9 9 22 16 27 16 5 1 25 22 44 48 32 42 35 53
35 113 0 55 -4 72 -28 107 -63 95 -171 121 -257 61z m175 -43 c60 -40 78 -146
35 -209 -59 -85 -161 -87 -224 -5 -47 63 -41 143 14 198 42 42 124 49 175 16z"/>
<path d="M1695 5973 c-57 -31 -85 -74 -85 -131 0 -71 68 -142 135 -142 34 0
62 15 103 53 28 28 32 37 32 86 0 64 -28 108 -83 135 -43 20 -64 20 -102 -1z
m105 -61 c13 -10 23 -33 27 -58 4 -33 1 -45 -22 -72 -46 -55 -127 -31 -141 42
-15 81 74 138 136 88z"/>
<path d="M7208 5543 c-14 -16 -31 -44 -38 -63 -11 -32 -10 -41 9 -77 27 -54
55 -73 110 -73 37 0 49 5 77 36 29 30 34 43 34 82 0 38 -6 55 -31 85 -28 34
-35 37 -83 37 -44 0 -56 -4 -78 -27z m127 -49 c14 -15 25 -35 25 -44 0 -26
-46 -70 -72 -70 -42 0 -68 27 -68 70 0 68 69 94 115 44z"/>
<path d="M6779 5490 c-47 -25 -68 -88 -49 -146 40 -119 201 -101 226 25 12 61
-54 142 -116 141 -14 -1 -41 -9 -61 -20z m113 -64 c10 -11 18 -31 18 -44 0
-29 -42 -72 -71 -72 -30 0 -69 38 -69 67 0 74 77 105 122 49z"/>
<path d="M7018 5039 c-37 -14 -68 -67 -68 -117 0 -34 6 -47 36 -76 20 -19 48
-37 63 -41 64 -14 141 52 141 121 0 89 -84 145 -172 113z m96 -55 c48 -48 18
-119 -50 -119 -32 0 -41 4 -52 28 -10 21 -11 35 -2 62 6 18 16 36 23 39 26 10
66 5 81 -10z"/>
<path d="M7109 4587 c-39 -26 -66 -89 -56 -129 17 -65 83 -108 145 -93 52 12
82 46 88 101 6 59 -8 89 -55 121 -43 29 -79 29 -122 0z m114 -59 c23 -27 22
-59 -4 -92 -52 -66 -149 10 -108 85 22 42 79 45 112 7z"/>
<path d="M1980 4312 c-19 -9 -43 -32 -54 -50 -16 -29 -17 -39 -7 -73 29 -95
128 -127 205 -65 24 20 29 31 30 77 1 62 -21 102 -68 119 -41 14 -66 13 -106
-8z m107 -54 c29 -27 29 -65 1 -95 -44 -47 -118 -15 -118 52 0 60 71 87 117
43z"/>
<path d="M6352 3687 c-82 -54 -82 -153 0 -200 47 -27 97 -22 141 14 35 29 37
34 37 89 0 55 -2 60 -37 89 -45 37 -93 40 -141 8z m113 -52 c32 -31 32 -55 0
-89 -52 -56 -139 -10 -114 62 18 53 75 66 114 27z"/>
<path d="M3131 3111 c-62 -58 -60 -126 7 -181 119 -98 259 65 151 176 -28 29
-40 34 -80 34 -38 0 -53 -6 -78 -29z m123 -42 c26 -20 34 -60 18 -86 -24 -38
-117 -30 -128 11 -10 40 0 70 26 83 35 18 53 16 84 -8z"/>
<path d="M5602 3107 c-79 -82 -31 -207 79 -207 45 0 105 49 118 96 12 45 1 76
-41 115 -26 23 -42 29 -78 29 -39 0 -51 -5 -78 -33z m126 -33 c23 -16 30 -66
14 -92 -20 -31 -104 -31 -124 1 -16 26 -8 66 18 86 32 25 61 27 92 5z"/>
<path d="M6172 3102 c-47 -44 -58 -77 -42 -126 16 -50 57 -76 118 -76 44 0 53
4 80 34 17 19 33 47 36 63 10 42 -17 97 -59 122 -53 31 -85 27 -133 -17z m129
-44 c28 -35 24 -63 -16 -94 -32 -24 -38 -25 -65 -14 -53 22 -65 68 -28 107 29
31 83 31 109 1z"/>
<path d="M2913 2729 c-95 -61 -43 -219 73 -219 33 0 48 6 77 35 47 46 54 75
32 126 -33 73 -117 100 -182 58z m102 -41 c46 -21 48 -94 2 -116 -35 -17 -73
-5 -94 29 -20 33 -11 72 19 87 30 14 42 14 73 0z"/>
<path d="M3535 2731 c-53 -25 -88 -65 -110 -127 -16 -47 -16 -52 -1 -82 9 -17
16 -37 16 -45 0 -21 61 -78 105 -98 55 -26 102 -23 163 7 53 26 79 58 103 126
10 30 10 45 0 80 -38 125 -167 190 -276 139z m169 -62 c38 -30 56 -71 56 -128
0 -44 -4 -54 -37 -86 -33 -32 -41 -35 -97 -35 -69 0 -106 19 -137 69 -31 51
-25 106 17 157 l35 44 68 0 c54 0 74 -4 95 -21z"/>
<path d="M5194 2730 c-49 -21 -97 -80 -115 -138 -14 -47 -6 -86 33 -149 23
-38 108 -83 157 -83 83 1 161 62 192 151 18 50 18 56 2 99 -42 116 -160 169
-269 120z m190 -81 c42 -49 48 -97 17 -157 -26 -51 -66 -72 -138 -72 -63 1
-98 20 -123 70 -28 53 -6 138 46 179 21 17 41 21 94 21 67 0 68 -1 104 -41z"/>
<path d="M5844 2730 c-38 -24 -69 -89 -60 -124 3 -14 23 -41 43 -61 29 -29 44
-35 77 -35 119 0 170 159 71 220 -41 25 -91 25 -131 0z m124 -57 c32 -43 -5
-107 -61 -107 -19 0 -42 6 -51 13 -16 14 -22 67 -8 87 24 36 95 40 120 7z"/>
</g>
</svg>
